{
	"asset":{
		"generator":"Khronos glTF Blender I/O v5.2.39",
		"version":"2.0"
	},
	"extensionsUsed":[
		"KHR_materials_specular"
	],
	"scene":0,
	"scenes":[
		{
			"name":"Scene",
			"nodes":[
				0
			]
		}
	],
	"nodes":[
		{
			"mesh":0,
			"name":"Kaelen_V3"
		}
	],
	"materials":[
		{
			"doubleSided":true,
			"extensions":{
				"KHR_materials_specular":{
					"specularFactor":0
				}
			},
			"name":"K_Skin",
			"pbrMetallicRoughness":{
				"baseColorFactor":[
					0.8122414946556091,
					0.45345646142959595,
					0.2271365225315094,
					1
				],
				"metallicFactor":0
			}
		},
		{
			"doubleSided":true,
			"extensions":{
				"KHR_materials_specular":{
					"specularFactor":0
				}
			},
			"name":"K_SkinShadow",
			"pbrMetallicRoughness":{
				"baseColorFactor":[
					0.5604991316795349,
					0.2590273320674896,
					0.11129941791296005,
					1
				],
				"metallicFactor":0
			}
		},
		{
			"doubleSided":true,
			"extensions":{
				"KHR_materials_specular":{
					"specularFactor":0
				}
			},
			"name":"K_Eyepatch",
			"pbrMetallicRoughness":{
				"baseColorFactor":[
					0.003697239561006427,
					0.0022629532031714916,
					0.003302703145891428,
					1
				],
				"metallicFactor":0,
				"roughnessFactor":0.949999988079071
			}
		},
		{
			"doubleSided":true,
			"extensions":{
				"KHR_materials_specular":{
					"specularFactor":0
				}
			},
			"name":"K_SilverBuckle",
			"pbrMetallicRoughness":{
				"baseColorFactor":[
					0.6387794613838196,
					0.6870307922363281,
					0.7372047901153564,
					1
				],
				"metallicFactor":0,
				"roughnessFactor":0.30000001192092896
			}
		},
		{
			"doubleSided":true,
			"extensions":{
				"KHR_materials_specular":{
					"specularFactor":0
				}
			},
			"name":"K_EyeWhite",
			"pbrMetallicRoughness":{
				"metallicFactor":0,
				"roughnessFactor":0.5
			}
		},
		{
			"doubleSided":true,
			"extensions":{
				"KHR_materials_specular":{
					"specularFactor":0
				}
			},
			"name":"K_EyePupil",
			"pbrMetallicRoughness":{
				"baseColorFactor":[
					0.003697239561006427,
					0.0022629532031714916,
					0.003302703145891428,
					1
				],
				"metallicFactor":0,
				"roughnessFactor":0.5
			}
		},
		{
			"doubleSided":true,
			"extensions":{
				"KHR_materials_specular":{
					"specularFactor":0
				}
			},
			"name":"K_HairMid",
			"pbrMetallicRoughness":{
				"baseColorFactor":[
					0.3488648235797882,
					0.3488648235797882,
					0.3488648235797882,
					1
				],
				"metallicFactor":0
			}
		},
		{
			"doubleSided":true,
			"extensions":{
				"KHR_materials_specular":{
					"specularFactor":0
				}
			},
			"name":"K_HairTop",
			"pbrMetallicRoughness":{
				"baseColorFactor":[
					0.6800203323364258,
					0.6800203323364258,
					0.6800203323364258,
					1
				],
				"metallicFactor":0
			}
		},
		{
			"doubleSided":true,
			"extensions":{
				"KHR_materials_specular":{
					"specularFactor":0
				}
			},
			"name":"K_HairDark",
			"pbrMetallicRoughness":{
				"baseColorFactor":[
					0.15728072822093964,
					0.15728072822093964,
					0.15728072822093964,
					1
				],
				"metallicFactor":0
			}
		},
		{
			"doubleSided":true,
			"emissiveFactor":[
				0.13613208179203973,
				0.0731647818551373,
				0.017486367324446306
			],
			"extensions":{
				"KHR_materials_specular":{
					"specularFactor":0
				}
			},
			"name":"K_ScarfMain",
			"pbrMetallicRoughness":{
				"baseColorFactor":[
					0.9075471758842468,
					0.48776519298553467,
					0.11657577753067017,
					1
				],
				"metallicFactor":0,
				"roughnessFactor":0.8999999761581421
			}
		},
		{
			"doubleSided":true,
			"emissiveFactor":[
				0.25,
				0.1613888144493103,
				0.059706997126340866
			],
			"extensions":{
				"KHR_materials_specular":{
					"specularFactor":0
				}
			},
			"name":"K_ScarfHigh",
			"pbrMetallicRoughness":{
				"baseColorFactor":[
					1,
					0.6455552577972412,
					0.23882798850536346,
					1
				],
				"metallicFactor":0,
				"roughnessFactor":0.8999999761581421
			}
		},
		{
			"doubleSided":true,
			"extensions":{
				"KHR_materials_specular":{
					"specularFactor":0
				}
			},
			"name":"K_RobeBase",
			"pbrMetallicRoughness":{
				"baseColorFactor":[
					0.013473397120833397,
					0.008373118005692959,
					0.006584957242012024,
					1
				],
				"metallicFactor":0
			}
		},
		{
			"doubleSided":true,
			"extensions":{
				"KHR_materials_specular":{
					"specularFactor":0
				}
			},
			"name":"K_BaldricLeather",
			"pbrMetallicRoughness":{
				"baseColorFactor":[
					0.15728072822093964,
					0.0477757528424263,
					0.012663720175623894,
					1
				],
				"metallicFactor":0
			}
		},
		{
			"doubleSided":true,
			"emissiveFactor":[
				0.10465945123272924,
				0.17004292090904372,
				0.2436724580793559
			],
			"extensions":{
				"KHR_materials_specular":{
					"specularFactor":0
				}
			},
			"name":"K_FrostCrystal",
			"pbrMetallicRoughness":{
				"baseColorFactor":[
					0.3488648235797882,
					0.5668097138404846,
					0.8122414946556091,
					1
				],
				"metallicFactor":0,
				"roughnessFactor":0.30000001192092896
			}
		},
		{
			"doubleSided":true,
			"extensions":{
				"KHR_materials_specular":{
					"specularFactor":0
				}
			},
			"name":"K_FrostDeep",
			"pbrMetallicRoughness":{
				"baseColorFactor":[
					0.014310519210994244,
					0.044552627950906754,
					0.14799802005290985,
					1
				],
				"metallicFactor":0,
				"roughnessFactor":0.6000000238418579
			}
		},
		{
			"doubleSided":true,
			"extensions":{
				"KHR_materials_specular":{
					"specularFactor":0
				}
			},
			"name":"K_FrostBase",
			"pbrMetallicRoughness":{
				"baseColorFactor":[
					0.04943345859646797,
					0.13609854876995087,
					0.3488648235797882,
					1
				],
				"metallicFactor":0,
				"roughnessFactor":0.5
			}
		},
		{
			"doubleSided":true,
			"extensions":{
				"KHR_materials_specular":{
					"specularFactor":0
				}
			},
			"name":"K_RobeTrim",
			"pbrMetallicRoughness":{
				"baseColorFactor":[
					0.006040593609213829,
					0.003302703145891428,
					0.0022629532031714916,
					1
				],
				"metallicFactor":0
			}
		},
		{
			"doubleSided":true,
			"extensions":{
				"KHR_materials_specular":{
					"specularFactor":0
				}
			},
			"name":"K_BandageCloth",
			"pbrMetallicRoughness":{
				"baseColorFactor":[
					0.6661169528961182,
					0.5859729647636414,
					0.5113978385925293,
					1
				],
				"metallicFactor":0
			}
		},
		{
			"doubleSided":true,
			"extensions":{
				"KHR_materials_specular":{
					"specularFactor":0
				}
			},
			"name":"K_BootsLeather",
			"pbrMetallicRoughness":{
				"baseColorFactor":[
					0.06575387716293335,
					0.023103555664420128,
					0.007155037019401789,
					1
				],
				"metallicFactor":0
			}
		},
		{
			"doubleSided":true,
			"extensions":{
				"KHR_materials_specular":{
					"specularFactor":0
				}
			},
			"name":"K_BootsSole",
			"pbrMetallicRoughness":{
				"baseColorFactor":[
					0.012663720175623894,
					0.0045597548596560955,
					0.0014331345446407795,
					1
				],
				"metallicFactor":0
			}
		}
	],
	"meshes":[
		{
			"name":"Bola",
			"primitives":[
				{
					"attributes":{
						"POSITION":0,
						"NORMAL":1,
						"TEXCOORD_0":2
					},
					"indices":3,
					"material":0
				},
				{
					"attributes":{
						"POSITION":4,
						"NORMAL":5,
						"TEXCOORD_0":6
					},
					"indices":7,
					"material":1
				},
				{
					"attributes":{
						"POSITION":8,
						"NORMAL":9,
						"TEXCOORD_0":10
					},
					"indices":11,
					"material":2
				},
				{
					"attributes":{
						"POSITION":12,
						"NORMAL":13,
						"TEXCOORD_0":14
					},
					"indices":15,
					"material":3
				},
				{
					"attributes":{
						"POSITION":16,
						"NORMAL":17,
						"TEXCOORD_0":18
					},
					"indices":19,
					"material":4
				},
				{
					"attributes":{
						"POSITION":20,
						"NORMAL":21,
						"TEXCOORD_0":22
					},
					"indices":7,
					"material":5
				},
				{
					"attributes":{
						"POSITION":23,
						"NORMAL":24,
						"TEXCOORD_0":25
					},
					"indices":26,
					"material":6
				},
				{
					"attributes":{
						"POSITION":27,
						"NORMAL":28,
						"TEXCOORD_0":29
					},
					"indices":30,
					"material":7
				},
				{
					"attributes":{
						"POSITION":31,
						"NORMAL":32,
						"TEXCOORD_0":33
					},
					"indices":34,
					"material":8
				},
				{
					"attributes":{
						"POSITION":35,
						"NORMAL":36,
						"TEXCOORD_0":37
					},
					"indices":38,
					"material":9
				},
				{
					"attributes":{
						"POSITION":39,
						"NORMAL":40,
						"TEXCOORD_0":41
					},
					"indices":42,
					"material":10
				},
				{
					"attributes":{
						"POSITION":43,
						"NORMAL":44,
						"TEXCOORD_0":45
					},
					"indices":46,
					"material":11
				},
				{
					"attributes":{
						"POSITION":47,
						"NORMAL":48,
						"TEXCOORD_0":49
					},
					"indices":50,
					"material":12
				},
				{
					"attributes":{
						"POSITION":51,
						"NORMAL":52,
						"TEXCOORD_0":53
					},
					"indices":54,
					"material":13
				},
				{
					"attributes":{
						"POSITION":55,
						"NORMAL":56,
						"TEXCOORD_0":57
					},
					"indices":58,
					"material":14
				},
				{
					"attributes":{
						"POSITION":59,
						"NORMAL":60,
						"TEXCOORD_0":61
					},
					"indices":62,
					"material":15
				},
				{
					"attributes":{
						"POSITION":63,
						"NORMAL":64,
						"TEXCOORD_0":65
					},
					"indices":66,
					"material":16
				},
				{
					"attributes":{
						"POSITION":67,
						"NORMAL":68,
						"TEXCOORD_0":69
					},
					"indices":70,
					"material":17
				},
				{
					"attributes":{
						"POSITION":71,
						"NORMAL":72,
						"TEXCOORD_0":73
					},
					"indices":74,
					"material":18
				},
				{
					"attributes":{
						"POSITION":75,
						"NORMAL":76,
						"TEXCOORD_0":77
					},
					"indices":15,
					"material":19
				}
			]
		}
	],
	"accessors":[
		{
			"bufferView":0,
			"componentType":5126,
			"count":115,
			"max":[
				0.1931999772787094,
				1.6615999937057495,
				0.17479997873306274
			],
			"min":[
				-0.1931999772787094,
				1.2584000825881958,
				-0.1947999894618988
			],
			"type":"VEC3"
		},
		{
			"bufferView":1,
			"componentType":5126,
			"count":115,
			"type":"VEC3"
		},
		{
			"bufferView":2,
			"componentType":5126,
			"count":115,
			"type":"VEC2"
		},
		{
			"bufferView":3,
			"componentType":5123,
			"count":504,
			"type":"SCALAR"
		},
		{
			"bufferView":4,
			"componentType":5126,
			"count":26,
			"max":[
				0.10392304509878159,
				1.4160391092300415,
				0.1588216871023178
			],
			"min":[
				-0.10392304509878159,
				1.2331790924072266,
				-0.06670452654361725
			],
			"type":"VEC3"
		},
		{
			"bufferView":5,
			"componentType":5126,
			"count":26,
			"type":"VEC3"
		},
		{
			"bufferView":6,
			"componentType":5126,
			"count":26,
			"type":"VEC2"
		},
		{
			"bufferView":7,
			"componentType":5123,
			"count":60,
			"type":"SCALAR"
		},
		{
			"bufferView":8,
			"componentType":5126,
			"count":101,
			"max":[
				0.20477627217769623,
				1.5297813415527344,
				0.25935524702072144
			],
			"min":[
				-0.20477627217769623,
				1.390218734741211,
				-0.2146732658147812
			],
			"type":"VEC3"
		},
		{
			"bufferView":9,
			"componentType":5126,
			"count":101,
			"type":"VEC3"
		},
		{
			"bufferView":10,
			"componentType":5126,
			"count":101,
			"type":"VEC2"
		},
		{
			"bufferView":11,
			"componentType":5123,
			"count":396,
			"type":"SCALAR"
		},
		{
			"bufferView":12,
			"componentType":5126,
			"count":28,
			"max":[
				0.09799999743700027,
				1.459999918937683,
				0.20200000703334808
			],
			"min":[
				-0.006235148292034864,
				1.023592472076416,
				0.12425389140844345
			],
			"type":"VEC3"
		},
		{
			"bufferView":13,
			"componentType":5126,
			"count":28,
			"type":"VEC3"
		},
		{
			"bufferView":14,
			"componentType":5126,
			"count":28,
			"type":"VEC2"
		},
		{
			"bufferView":15,
			"componentType":5123,
			"count":72,
			"type":"SCALAR"
		},
		{
			"bufferView":16,
			"componentType":5126,
			"count":40,
			"max":[
				-0.03762564808130264,
				1.475006341934204,
				0.23287461698055267
			],
			"min":[
				-0.1323743611574173,
				1.4249935150146484,
				0.12712541222572327
			],
			"type":"VEC3"
		},
		{
			"bufferView":17,
			"componentType":5126,
			"count":40,
			"type":"VEC3"
		},
		{
			"bufferView":18,
			"componentType":5126,
			"count":40,
			"type":"VEC2"
		},
		{
			"bufferView":19,
			"componentType":5123,
			"count":96,
			"type":"SCALAR"
		},
		{
			"bufferView":20,
			"componentType":5126,
			"count":26,
			"max":[
				-0.05456630513072014,
				1.4714115858078003,
				0.21907348930835724
			],
			"min":[
				-0.1154337003827095,
				1.4285882711410522,
				0.15092651546001434
			],
			"type":"VEC3"
		},
		{
			"bufferView":21,
			"componentType":5126,
			"count":26,
			"type":"VEC3"
		},
		{
			"bufferView":22,
			"componentType":5126,
			"count":26,
			"type":"VEC2"
		},
		{
			"bufferView":23,
			"componentType":5126,
			"count":179,
			"max":[
				0.25999999046325684,
				1.7599999904632568,
				0.22755281627178192
			],
			"min":[
				-0.22079998254776,
				1.2599998712539673,
				-0.25540000200271606
			],
			"type":"VEC3"
		},
		{
			"bufferView":24,
			"componentType":5126,
			"count":179,
			"type":"VEC3"
		},
		{
			"bufferView":25,
			"componentType":5126,
			"count":179,
			"type":"VEC2"
		},
		{
			"bufferView":26,
			"componentType":5123,
			"count":804,
			"type":"SCALAR"
		},
		{
			"bufferView":27,
			"componentType":5126,
			"count":53,
			"max":[
				0.054999999701976776,
				1.7699998617172241,
				0.2418186515569687
			],
			"min":[
				-0.25045084953308105,
				1.2799999713897705,
				-0.08279754221439362
			],
			"type":"VEC3"
		},
		{
			"bufferView":28,
			"componentType":5126,
			"count":53,
			"type":"VEC3"
		},
		{
			"bufferView":29,
			"componentType":5126,
			"count":53,
			"type":"VEC2"
		},
		{
			"bufferView":30,
			"componentType":5123,
			"count":255,
			"type":"SCALAR"
		},
		{
			"bufferView":31,
			"componentType":5126,
			"count":48,
			"max":[
				0.19500000774860382,
				1.6099998950958252,
				0.2123080939054489
			],
			"min":[
				-0.20854102075099945,
				1.2599998712539673,
				-0.29608452320098877
			],
			"type":"VEC3"
		},
		{
			"bufferView":32,
			"componentType":5126,
			"count":48,
			"type":"VEC3"
		},
		{
			"bufferView":33,
			"componentType":5126,
			"count":48,
			"type":"VEC2"
		},
		{
			"bufferView":34,
			"componentType":5123,
			"count":225,
			"type":"SCALAR"
		},
		{
			"bufferView":35,
			"componentType":5126,
			"count":76,
			"max":[
				0.20272362232208252,
				1.3450911045074463,
				0.1940368413925171
			],
			"min":[
				-0.20272362232208252,
				0.46000003814697266,
				-0.2818186581134796
			],
			"type":"VEC3"
		},
		{
			"bufferView":36,
			"componentType":5126,
			"count":76,
			"type":"VEC3"
		},
		{
			"bufferView":37,
			"componentType":5126,
			"count":76,
			"type":"VEC2"
		},
		{
			"bufferView":38,
			"componentType":5123,
			"count":267,
			"type":"SCALAR"
		},
		{
			"bufferView":39,
			"componentType":5126,
			"count":50,
			"max":[
				0.07999999821186066,
				1.361914038658142,
				0.15952065587043762
			],
			"min":[
				-0.22980473935604095,
				0.7900000214576721,
				-0.22804227471351624
			],
			"type":"VEC3"
		},
		{
			"bufferView":40,
			"componentType":5126,
			"count":50,
			"type":"VEC3"
		},
		{
			"bufferView":41,
			"componentType":5126,
			"count":50,
			"type":"VEC2"
		},
		{
			"bufferView":42,
			"componentType":5123,
			"count":159,
			"type":"SCALAR"
		},
		{
			"bufferView":43,
			"componentType":5126,
			"count":118,
			"max":[
				0.2879207134246826,
				1.1899998188018799,
				0.1621999889612198
			],
			"min":[
				-0.19972187280654907,
				0.5800000429153442,
				-0.18219999969005585
			],
			"type":"VEC3"
		},
		{
			"bufferView":44,
			"componentType":5126,
			"count":118,
			"type":"VEC3"
		},
		{
			"bufferView":45,
			"componentType":5126,
			"count":118,
			"type":"VEC2"
		},
		{
			"bufferView":46,
			"componentType":5123,
			"count":300,
			"type":"SCALAR"
		},
		{
			"bufferView":47,
			"componentType":5126,
			"count":241,
			"max":[
				0.2240000069141388,
				1.1803081035614014,
				0.15451984107494354
			],
			"min":[
				-0.23629765212535858,
				0.40400004386901855,
				-0.1745198518037796
			],
			"type":"VEC3"
		},
		{
			"bufferView":48,
			"componentType":5126,
			"count":241,
			"type":"VEC3"
		},
		{
			"bufferView":49,
			"componentType":5126,
			"count":241,
			"type":"VEC2"
		},
		{
			"bufferView":50,
			"componentType":5123,
			"count":960,
			"type":"SCALAR"
		},
		{
			"bufferView":51,
			"componentType":5126,
			"count":20,
			"max":[
				-0.1299101561307907,
				1.2108927965164185,
				0.02790326066315174
			],
			"min":[
				-0.3622487485408783,
				0.816360354423523,
				-0.10314995795488358
			],
			"type":"VEC3"
		},
		{
			"bufferView":52,
			"componentType":5126,
			"count":20,
			"type":"VEC3"
		},
		{
			"bufferView":53,
			"componentType":5126,
			"count":20,
			"type":"VEC2"
		},
		{
			"bufferView":54,
			"componentType":5123,
			"count":42,
			"type":"SCALAR"
		},
		{
			"bufferView":55,
			"componentType":5126,
			"count":30,
			"max":[
				-0.18033862113952637,
				1.1268008947372437,
				0.0636851117014885
			],
			"min":[
				-0.3053221106529236,
				0.9123443365097046,
				-0.08307678252458572
			],
			"type":"VEC3"
		},
		{
			"bufferView":56,
			"componentType":5126,
			"count":30,
			"type":"VEC3"
		},
		{
			"bufferView":57,
			"componentType":5126,
			"count":30,
			"type":"VEC2"
		},
		{
			"bufferView":58,
			"componentType":5123,
			"count":72,
			"type":"SCALAR"
		},
		{
			"bufferView":59,
			"componentType":5126,
			"count":91,
			"max":[
				-0.21162213385105133,
				0.9535483717918396,
				0.1459999829530716
			],
			"min":[
				-0.3540000021457672,
				0.6179999709129333,
				-0.05770352482795715
			],
			"type":"VEC3"
		},
		{
			"bufferView":60,
			"componentType":5126,
			"count":91,
			"type":"VEC3"
		},
		{
			"bufferView":61,
			"componentType":5126,
			"count":91,
			"type":"VEC2"
		},
		{
			"bufferView":62,
			"componentType":5123,
			"count":312,
			"type":"SCALAR"
		},
		{
			"bufferView":63,
			"componentType":5126,
			"count":102,
			"max":[
				0.3015846610069275,
				1.1273770332336426,
				0.06799999624490738
			],
			"min":[
				-0.184187114238739,
				0.4366055727005005,
				-0.08115507662296295
			],
			"type":"VEC3"
		},
		{
			"bufferView":64,
			"componentType":5126,
			"count":102,
			"type":"VEC3"
		},
		{
			"bufferView":65,
			"componentType":5126,
			"count":102,
			"type":"VEC2"
		},
		{
			"bufferView":66,
			"componentType":5123,
			"count":252,
			"type":"SCALAR"
		},
		{
			"bufferView":67,
			"componentType":5126,
			"count":95,
			"max":[
				0.3522000014781952,
				0.9547022581100464,
				0.14379997551441193
			],
			"min":[
				0.21090181171894073,
				0.6261999607086182,
				-0.0548781156539917
			],
			"type":"VEC3"
		},
		{
			"bufferView":68,
			"componentType":5126,
			"count":95,
			"type":"VEC3"
		},
		{
			"bufferView":69,
			"componentType":5126,
			"count":95,
			"type":"VEC2"
		},
		{
			"bufferView":70,
			"componentType":5123,
			"count":324,
			"type":"SCALAR"
		},
		{
			"bufferView":71,
			"componentType":5126,
			"count":96,
			"max":[
				0.20469677448272705,
				0.45390403270721436,
				0.15131956338882446
			],
			"min":[
				-0.20469677448272705,
				0.062435150146484375,
				-0.07800000160932541
			],
			"type":"VEC3"
		},
		{
			"bufferView":72,
			"componentType":5126,
			"count":96,
			"type":"VEC3"
		},
		{
			"bufferView":73,
			"componentType":5126,
			"count":96,
			"type":"VEC2"
		},
		{
			"bufferView":74,
			"componentType":5123,
			"count":240,
			"type":"SCALAR"
		},
		{
			"bufferView":75,
			"componentType":5126,
			"count":28,
			"max":[
				0.1970181167125702,
				0.0690302848815918,
				0.1554284542798996
			],
			"min":[
				-0.1970181167125702,
				0.01096963882446289,
				-0.0354284793138504
			],
			"type":"VEC3"
		},
		{
			"bufferView":76,
			"componentType":5126,
			"count":28,
			"type":"VEC3"
		},
		{
			"bufferView":77,
			"componentType":5126,
			"count":28,
			"type":"VEC2"
		}
	],
	"bufferViews":[
		{
			"buffer":0,
			"byteLength":1380,
			"byteOffset":0,
			"target":34962
		},
		{
			"buffer":0,
			"byteLength":1380,
			"byteOffset":1380,
			"target":34962
		},
		{
			"buffer":0,
			"byteLength":920,
			"byteOffset":2760,
			"target":34962
		},
		{
			"buffer":0,
			"byteLength":1008,
			"byteOffset":3680,
			"target":34963
		},
		{
			"buffer":0,
			"byteLength":312,
			"byteOffset":4688,
			"target":34962
		},
		{
			"buffer":0,
			"byteLength":312,
			"byteOffset":5000,
			"target":34962
		},
		{
			"buffer":0,
			"byteLength":208,
			"byteOffset":5312,
			"target":34962
		},
		{
			"buffer":0,
			"byteLength":120,
			"byteOffset":5520,
			"target":34963
		},
		{
			"buffer":0,
			"byteLength":1212,
			"byteOffset":5640,
			"target":34962
		},
		{
			"buffer":0,
			"byteLength":1212,
			"byteOffset":6852,
			"target":34962
		},
		{
			"buffer":0,
			"byteLength":808,
			"byteOffset":8064,
			"target":34962
		},
		{
			"buffer":0,
			"byteLength":792,
			"byteOffset":8872,
			"target":34963
		},
		{
			"buffer":0,
			"byteLength":336,
			"byteOffset":9664,
			"target":34962
		},
		{
			"buffer":0,
			"byteLength":336,
			"byteOffset":10000,
			"target":34962
		},
		{
			"buffer":0,
			"byteLength":224,
			"byteOffset":10336,
			"target":34962
		},
		{
			"buffer":0,
			"byteLength":144,
			"byteOffset":10560,
			"target":34963
		},
		{
			"buffer":0,
			"byteLength":480,
			"byteOffset":10704,
			"target":34962
		},
		{
			"buffer":0,
			"byteLength":480,
			"byteOffset":11184,
			"target":34962
		},
		{
			"buffer":0,
			"byteLength":320,
			"byteOffset":11664,
			"target":34962
		},
		{
			"buffer":0,
			"byteLength":192,
			"byteOffset":11984,
			"target":34963
		},
		{
			"buffer":0,
			"byteLength":312,
			"byteOffset":12176,
			"target":34962
		},
		{
			"buffer":0,
			"byteLength":312,
			"byteOffset":12488,
			"target":34962
		},
		{
			"buffer":0,
			"byteLength":208,
			"byteOffset":12800,
			"target":34962
		},
		{
			"buffer":0,
			"byteLength":2148,
			"byteOffset":13008,
			"target":34962
		},
		{
			"buffer":0,
			"byteLength":2148,
			"byteOffset":15156,
			"target":34962
		},
		{
			"buffer":0,
			"byteLength":1432,
			"byteOffset":17304,
			"target":34962
		},
		{
			"buffer":0,
			"byteLength":1608,
			"byteOffset":18736,
			"target":34963
		},
		{
			"buffer":0,
			"byteLength":636,
			"byteOffset":20344,
			"target":34962
		},
		{
			"buffer":0,
			"byteLength":636,
			"byteOffset":20980,
			"target":34962
		},
		{
			"buffer":0,
			"byteLength":424,
			"byteOffset":21616,
			"target":34962
		},
		{
			"buffer":0,
			"byteLength":510,
			"byteOffset":22040,
			"target":34963
		},
		{
			"buffer":0,
			"byteLength":576,
			"byteOffset":22552,
			"target":34962
		},
		{
			"buffer":0,
			"byteLength":576,
			"byteOffset":23128,
			"target":34962
		},
		{
			"buffer":0,
			"byteLength":384,
			"byteOffset":23704,
			"target":34962
		},
		{
			"buffer":0,
			"byteLength":450,
			"byteOffset":24088,
			"target":34963
		},
		{
			"buffer":0,
			"byteLength":912,
			"byteOffset":24540,
			"target":34962
		},
		{
			"buffer":0,
			"byteLength":912,
			"byteOffset":25452,
			"target":34962
		},
		{
			"buffer":0,
			"byteLength":608,
			"byteOffset":26364,
			"target":34962
		},
		{
			"buffer":0,
			"byteLength":534,
			"byteOffset":26972,
			"target":34963
		},
		{
			"buffer":0,
			"byteLength":600,
			"byteOffset":27508,
			"target":34962
		},
		{
			"buffer":0,
			"byteLength":600,
			"byteOffset":28108,
			"target":34962
		},
		{
			"buffer":0,
			"byteLength":400,
			"byteOffset":28708,
			"target":34962
		},
		{
			"buffer":0,
			"byteLength":318,
			"byteOffset":29108,
			"target":34963
		},
		{
			"buffer":0,
			"byteLength":1416,
			"byteOffset":29428,
			"target":34962
		},
		{
			"buffer":0,
			"byteLength":1416,
			"byteOffset":30844,
			"target":34962
		},
		{
			"buffer":0,
			"byteLength":944,
			"byteOffset":32260,
			"target":34962
		},
		{
			"buffer":0,
			"byteLength":600,
			"byteOffset":33204,
			"target":34963
		},
		{
			"buffer":0,
			"byteLength":2892,
			"byteOffset":33804,
			"target":34962
		},
		{
			"buffer":0,
			"byteLength":2892,
			"byteOffset":36696,
			"target":34962
		},
		{
			"buffer":0,
			"byteLength":1928,
			"byteOffset":39588,
			"target":34962
		},
		{
			"buffer":0,
			"byteLength":1920,
			"byteOffset":41516,
			"target":34963
		},
		{
			"buffer":0,
			"byteLength":240,
			"byteOffset":43436,
			"target":34962
		},
		{
			"buffer":0,
			"byteLength":240,
			"byteOffset":43676,
			"target":34962
		},
		{
			"buffer":0,
			"byteLength":160,
			"byteOffset":43916,
			"target":34962
		},
		{
			"buffer":0,
			"byteLength":84,
			"byteOffset":44076,
			"target":34963
		},
		{
			"buffer":0,
			"byteLength":360,
			"byteOffset":44160,
			"target":34962
		},
		{
			"buffer":0,
			"byteLength":360,
			"byteOffset":44520,
			"target":34962
		},
		{
			"buffer":0,
			"byteLength":240,
			"byteOffset":44880,
			"target":34962
		},
		{
			"buffer":0,
			"byteLength":144,
			"byteOffset":45120,
			"target":34963
		},
		{
			"buffer":0,
			"byteLength":1092,
			"byteOffset":45264,
			"target":34962
		},
		{
			"buffer":0,
			"byteLength":1092,
			"byteOffset":46356,
			"target":34962
		},
		{
			"buffer":0,
			"byteLength":728,
			"byteOffset":47448,
			"target":34962
		},
		{
			"buffer":0,
			"byteLength":624,
			"byteOffset":48176,
			"target":34963
		},
		{
			"buffer":0,
			"byteLength":1224,
			"byteOffset":48800,
			"target":34962
		},
		{
			"buffer":0,
			"byteLength":1224,
			"byteOffset":50024,
			"target":34962
		},
		{
			"buffer":0,
			"byteLength":816,
			"byteOffset":51248,
			"target":34962
		},
		{
			"buffer":0,
			"byteLength":504,
			"byteOffset":52064,
			"target":34963
		},
		{
			"buffer":0,
			"byteLength":1140,
			"byteOffset":52568,
			"target":34962
		},
		{
			"buffer":0,
			"byteLength":1140,
			"byteOffset":53708,
			"target":34962
		},
		{
			"buffer":0,
			"byteLength":760,
			"byteOffset":54848,
			"target":34962
		},
		{
			"buffer":0,
			"byteLength":648,
			"byteOffset":55608,
			"target":34963
		},
		{
			"buffer":0,
			"byteLength":1152,
			"byteOffset":56256,
			"target":34962
		},
		{
			"buffer":0,
			"byteLength":1152,
			"byteOffset":57408,
			"target":34962
		},
		{
			"buffer":0,
			"byteLength":768,
			"byteOffset":58560,
			"target":34962
		},
		{
			"buffer":0,
			"byteLength":480,
			"byteOffset":59328,
			"target":34963
		},
		{
			"buffer":0,
			"byteLength":336,
			"byteOffset":59808,
			"target":34962
		},
		{
			"buffer":0,
			"byteLength":336,
			"byteOffset":60144,
			"target":34962
		},
		{
			"buffer":0,
			"byteLength":224,
			"byteOffset":60480,
			"target":34962
		}
	],
	"buffers":[
		{
			"byteLength":60704,
			"uri":"Kaelen_V3.bin"
		}
	]
}
