{
	"asset":{
		"generator":"Khronos glTF Blender I/O v5.2.39",
		"version":"2.0"
	},
	"extensionsUsed":[
		"KHR_materials_emissive_strength"
	],
	"scene":0,
	"scenes":[
		{
			"name":"Scene",
			"nodes":[
				0,
				1,
				2,
				3,
				4,
				5,
				6,
				7,
				8,
				9,
				10,
				11,
				12,
				13,
				14,
				15,
				16,
				17,
				18,
				19,
				20,
				21,
				22,
				23,
				24,
				25,
				26,
				27,
				28,
				29,
				30,
				31,
				32,
				33,
				34,
				35,
				36,
				37,
				38,
				39,
				40,
				41,
				42,
				43,
				44,
				45,
				46,
				47,
				48,
				49,
				50,
				51,
				52,
				53,
				54,
				55,
				56,
				57,
				58,
				59,
				60,
				61,
				62,
				63,
				64,
				65,
				66,
				67,
				68,
				69,
				70,
				71,
				72,
				73,
				74,
				75,
				76,
				77,
				78,
				79
			]
		}
	],
	"nodes":[
		{
			"mesh":0,
			"name":"Baldric_Buckle",
			"rotation":[
				0.1274322271347046,
				0.02825104631483555,
				0.2145879864692688,
				0.9679437279701233
			],
			"scale":[
				1.2000000476837158,
				0.8999999761581421,
				0.4000000059604645
			],
			"translation":[
				0.03999999910593033,
				1.2899999618530273,
				0.13500000536441803
			]
		},
		{
			"mesh":1,
			"name":"Bandage_Wrap_0",
			"rotation":[
				0.13020825386047363,
				-0.009105048142373562,
				-0.06915970146656036,
				0.9890297651290894
			],
			"translation":[
				0.2800000011920929,
				0.9700000286102295,
				0.019999999552965164
			]
		},
		{
			"mesh":2,
			"name":"Bandage_Wrap_1",
			"rotation":[
				0.23344537615776062,
				0,
				0,
				0.972369909286499
			],
			"translation":[
				0.2800000011920929,
				1.0049999952316284,
				0.019999999552965164
			]
		},
		{
			"mesh":3,
			"name":"Bandage_Wrap_2",
			"rotation":[
				0.13020825386047363,
				-0.009105048142373562,
				-0.06915970146656036,
				0.9890297651290894
			],
			"translation":[
				0.2800000011920929,
				1.0399999618530273,
				0.019999999552965164
			]
		},
		{
			"mesh":4,
			"name":"Bandage_Wrap_3",
			"rotation":[
				0.23344537615776062,
				0,
				0,
				0.972369909286499
			],
			"translation":[
				0.2800000011920929,
				1.0750000476837158,
				0.019999999552965164
			]
		},
		{
			"mesh":5,
			"name":"Bandage_Wrap_4",
			"rotation":[
				0.13020825386047363,
				-0.009105048142373562,
				-0.06915970146656036,
				0.9890297651290894
			],
			"translation":[
				0.2800000011920929,
				1.1100000143051147,
				0.019999999552965164
			]
		},
		{
			"mesh":6,
			"name":"Bandage_Wrap_5",
			"rotation":[
				0.23344537615776062,
				0,
				0,
				0.972369909286499
			],
			"translation":[
				0.2800000011920929,
				1.1449999809265137,
				0.019999999552965164
			]
		},
		{
			"mesh":7,
			"name":"Belt_Buckle",
			"scale":[
				1.2000000476837158,
				0.8999999761581421,
				0.30000001192092896
			],
			"translation":[
				0,
				1.0800000429153442,
				0.15199999511241913
			]
		},
		{
			"mesh":8,
			"name":"Chest_Baldric",
			"rotation":[
				0.28432291746139526,
				0.09790021926164627,
				0.3104998767375946,
				0.9017571210861206
			],
			"scale":[
				1.100000023841858,
				1,
				0.8500000238418579
			],
			"translation":[
				0,
				1.2799999713897705,
				0
			]
		},
		{
			"mesh":9,
			"name":"Chin_Jaw",
			"rotation":[
				-0.10452848672866821,
				0,
				0,
				0.994521975517273
			],
			"translation":[
				0,
				1.4900000095367432,
				0.04500000178813934
			]
		},
		{
			"mesh":10,
			"name":"Coat_Skirt",
			"scale":[
				1.0800000429153442,
				1,
				0.8799999952316284
			],
			"translation":[
				0,
				0.8700000047683716,
				-0.009999999776482582
			]
		},
		{
			"mesh":11,
			"name":"Eyepatch",
			"scale":[
				1.100000023841858,
				0.949999988079071,
				0.3499999940395355
			],
			"translation":[
				0.04500000178813934,
				1.6100000143051147,
				0.1120000034570694
			]
		},
		{
			"mesh":12,
			"name":"Eyepatch_Rivet",
			"translation":[
				0.04500000178813934,
				1.6100000143051147,
				0.125
			]
		},
		{
			"mesh":13,
			"name":"Eyepatch_Strap",
			"rotation":[
				0.13864350318908691,
				0.012129733338952065,
				0.08630754798650742,
				0.9864998459815979
			],
			"translation":[
				0,
				1.6200000047683716,
				0.009999999776482582
			]
		},
		{
			"mesh":14,
			"name":"Hair_Crown_Dome",
			"scale":[
				1.0199999809265137,
				1.0399999618530273,
				1.0800000429153442
			],
			"translation":[
				0,
				1.649999976158142,
				-0.019999999552965164
			]
		},
		{
			"mesh":15,
			"name":"Hair_Lock_00",
			"rotation":[
				0.34040114283561707,
				-0.220584437251091,
				-0.05955759808421135,
				0.9120979309082031
			],
			"scale":[
				0.03500000014901161,
				0.12999999523162842,
				0.03500000014901161
			],
			"translation":[
				-0.03999999910593033,
				1.6799999475479126,
				0.11999999731779099
			]
		},
		{
			"mesh":16,
			"name":"Hair_Lock_01",
			"rotation":[
				0.358026921749115,
				0.015631791204214096,
				0.040722209960222244,
				0.9326919317245483
			],
			"scale":[
				0.03999999910593033,
				0.14000000059604645,
				0.03999999910593033
			],
			"translation":[
				0.009999999776482582,
				1.6699999570846558,
				0.12999999523162842
			]
		},
		{
			"mesh":17,
			"name":"Hair_Lock_02",
			"rotation":[
				0.3485586941242218,
				0.25673285126686096,
				0.09090036153793335,
				0.8968456983566284
			],
			"scale":[
				0.034999996423721313,
				0.11999999731779099,
				0.03500000014901161
			],
			"translation":[
				0.05999999865889549,
				1.6799999475479126,
				0.11999999731779099
			]
		},
		{
			"mesh":18,
			"name":"Hair_Lock_03",
			"rotation":[
				0.3250006139278412,
				-0.34406718611717224,
				-0.14136344194412231,
				0.8694877624511719
			],
			"scale":[
				0.030000001192092896,
				0.11000000685453415,
				0.029999999329447746
			],
			"translation":[
				-0.07999999821186066,
				1.6399999856948853,
				0.10000000149011612
			]
		},
		{
			"mesh":19,
			"name":"Hair_Lock_04",
			"rotation":[
				0.3426656723022461,
				0.37684166431427,
				0.18772338330745697,
				0.8398395776748657
			],
			"scale":[
				0.029999999329447746,
				0.11000000685453415,
				0.029999997466802597
			],
			"translation":[
				0.09000000357627869,
				1.6299999952316284,
				0.09000000357627869
			]
		},
		{
			"mesh":20,
			"name":"Hair_Lock_05",
			"rotation":[
				-0.10452848672866821,
				0,
				0,
				0.994521975517273
			],
			"scale":[
				0.04500000178813934,
				0.1599999964237213,
				0.04500000178813934
			],
			"translation":[
				0,
				1.7999999523162842,
				-0.009999999776482582
			]
		},
		{
			"mesh":21,
			"name":"Hair_Lock_06",
			"rotation":[
				-0.04635577276349068,
				-0.15030953288078308,
				-0.22711601853370667,
				0.9610809087753296
			],
			"scale":[
				0.03799999877810478,
				0.14000000059604645,
				0.03799999877810478
			],
			"translation":[
				-0.05999999865889549,
				1.7699999809265137,
				-0.019999999552965164
			]
		},
		{
			"mesh":22,
			"name":"Hair_Lock_07",
			"rotation":[
				-0.04635577276349068,
				0.15030953288078308,
				0.22711601853370667,
				0.9610809087753296
			],
			"scale":[
				0.03799999877810478,
				0.14000000059604645,
				0.03799999877810478
			],
			"translation":[
				0.05999999865889549,
				1.7699999809265137,
				-0.019999999552965164
			]
		},
		{
			"mesh":23,
			"name":"Hair_Lock_08",
			"rotation":[
				-0.27933406829833984,
				-0.08450586348772049,
				-0.16233424842357635,
				0.9425915479660034
			],
			"scale":[
				0.03799999877810478,
				0.15000000596046448,
				0.03799999877810478
			],
			"translation":[
				-0.029999999329447746,
				1.7400000095367432,
				-0.07000000029802322
			]
		},
		{
			"mesh":24,
			"name":"Hair_Lock_09",
			"rotation":[
				-0.27933406829833984,
				0.08450586348772049,
				0.16233424842357635,
				0.9425915479660034
			],
			"scale":[
				0.03799999877810478,
				0.15000000596046448,
				0.03799999877810478
			],
			"translation":[
				0.03999999910593033,
				1.7400000095367432,
				-0.07000000029802322
			]
		},
		{
			"mesh":25,
			"name":"Hair_Lock_10",
			"rotation":[
				0.08052139729261398,
				-0.033353060483932495,
				-0.38122719526290894,
				0.9203639030456543
			],
			"scale":[
				0.03200000151991844,
				0.12000000476837158,
				0.03199999779462814
			],
			"translation":[
				-0.10999999940395355,
				1.5700000524520874,
				0.029999999329447746
			]
		},
		{
			"mesh":26,
			"name":"Hair_Lock_11",
			"rotation":[
				0.08052139729261398,
				0.033353060483932495,
				0.38122719526290894,
				0.9203639030456543
			],
			"scale":[
				0.03200000151991844,
				0.12000000476837158,
				0.03199999779462814
			],
			"translation":[
				0.10999999940395355,
				1.5700000524520874,
				0.029999999329447746
			]
		},
		{
			"mesh":27,
			"name":"Hair_Lock_12",
			"rotation":[
				-0.37686964869499207,
				0.06645228713750839,
				-0.16042998433113098,
				0.9098437428474426
			],
			"scale":[
				0.035999998450279236,
				0.12999999523162842,
				0.035999998450279236
			],
			"translation":[
				-0.07999999821186066,
				1.5499999523162842,
				-0.10000000149011612
			]
		},
		{
			"mesh":28,
			"name":"Hair_Lock_13",
			"rotation":[
				-0.37686964869499207,
				-0.06645228713750839,
				0.16042998433113098,
				0.9098437428474426
			],
			"scale":[
				0.035999998450279236,
				0.12999999523162842,
				0.035999998450279236
			],
			"translation":[
				0.07999999821186066,
				1.5499999523162842,
				-0.10000000149011612
			]
		},
		{
			"mesh":29,
			"name":"Hair_Lock_14",
			"rotation":[
				-0.4617486298084259,
				0,
				0,
				0.887010931968689
			],
			"scale":[
				0.041999999433755875,
				0.15000002086162567,
				0.041999999433755875
			],
			"translation":[
				0,
				1.5299999713897705,
				-0.11999999731779099
			]
		},
		{
			"mesh":30,
			"name":"Head_Base",
			"scale":[
				0.8999999761581421,
				1.1200000047683716,
				1.0199999809265137
			],
			"translation":[
				0,
				1.600000023841858,
				0.009999999776482582
			]
		},
		{
			"mesh":31,
			"name":"Ice_Crystal_00",
			"rotation":[
				0.20284809172153473,
				0.1743641346693039,
				0.27198734879493713,
				0.9243770241737366
			],
			"scale":[
				0.052000001072883606,
				0.18000000715255737,
				0.052000001072883606
			],
			"translation":[
				-0.23999999463558197,
				1.4700000286102295,
				0.019999999552965164
			]
		},
		{
			"mesh":32,
			"name":"Ice_Crystal_01",
			"rotation":[
				0.21765348315238953,
				0.24955469369888306,
				0.45950570702552795,
				0.8241382837295532
			],
			"scale":[
				0.04800000414252281,
				0.1599999964237213,
				0.047999996691942215
			],
			"translation":[
				-0.28999999165534973,
				1.4199999570846558,
				0.03999999910593033
			]
		},
		{
			"mesh":33,
			"name":"Ice_Crystal_02",
			"rotation":[
				-0.24701961874961853,
				-0.19985127449035645,
				0.34431546926498413,
				0.8834521174430847
			],
			"scale":[
				0.041999995708465576,
				0.15000000596046448,
				0.041999999433755875
			],
			"translation":[
				-0.25999999046325684,
				1.440000057220459,
				-0.03999999910593033
			]
		},
		{
			"mesh":34,
			"name":"Ice_Crystal_03",
			"rotation":[
				0.12173733860254288,
				0.12173733860254288,
				0.5981107950210571,
				0.7827026844024658
			],
			"scale":[
				0.03800000250339508,
				0.14000000059604645,
				0.03799999877810478
			],
			"translation":[
				-0.3199999928474426,
				1.3700000047683716,
				0.009999999776482582
			]
		},
		{
			"mesh":35,
			"name":"Ice_Crystal_04",
			"rotation":[
				0.09052866697311401,
				0.05087694525718689,
				0.08295423537492752,
				0.9911279678344727
			],
			"scale":[
				0.06199999898672104,
				0.1599999964237213,
				0.057999998331069946
			],
			"translation":[
				-0.2800000011920929,
				1.25,
				0.019999999552965164
			]
		},
		{
			"mesh":36,
			"name":"Ice_Crystal_05",
			"rotation":[
				0.28984853625297546,
				0.313455194234848,
				0.3091273009777069,
				0.8498083353042603
			],
			"scale":[
				0.03200000151991844,
				0.10999999940395355,
				0.03200000151991844
			],
			"translation":[
				-0.3199999928474426,
				1.2400000095367432,
				0.03999999910593033
			]
		},
		{
			"mesh":37,
			"name":"Ice_Crystal_06",
			"rotation":[
				-0.40555045008659363,
				-0.25250452756881714,
				0.17129693925380707,
				0.8616425395011902
			],
			"scale":[
				0.037999995052814484,
				0.12999999523162842,
				0.03800000250339508
			],
			"translation":[
				-0.33000001311302185,
				1.149999976158142,
				-0.03999999910593033
			]
		},
		{
			"mesh":38,
			"name":"Ice_Crystal_07",
			"rotation":[
				0.10720066726207733,
				0.05055936425924301,
				0.06475995481014252,
				0.9908369779586792
			],
			"scale":[
				0.06800000369548798,
				0.17000000178813934,
				0.05999999865889549
			],
			"translation":[
				-0.30000001192092896,
				1.0399999618530273,
				0.029999999329447746
			]
		},
		{
			"mesh":39,
			"name":"Ice_Crystal_08",
			"rotation":[
				0.2968829274177551,
				0.24479229748249054,
				0.28311407566070557,
				0.8785122036933899
			],
			"scale":[
				0.03200000151991844,
				0.11999999731779099,
				0.03200000151991844
			],
			"translation":[
				-0.3400000035762787,
				1.0499999523162842,
				0.05999999865889549
			]
		},
		{
			"mesh":40,
			"name":"Ice_Crystal_09",
			"rotation":[
				-0.19305385649204254,
				-0.15089751780033112,
				0.4008975625038147,
				0.8827464580535889
			],
			"scale":[
				0.03400000184774399,
				0.11999999731779099,
				0.03400000184774399
			],
			"translation":[
				-0.3499999940395355,
				0.9800000190734863,
				-0.019999999552965164
			]
		},
		{
			"mesh":41,
			"name":"Ice_Crystal_10",
			"rotation":[
				0.08707279711961746,
				0.003801680402830243,
				0.0434534028172493,
				0.9952466487884521
			],
			"scale":[
				0.047999996691942215,
				0.09000000357627869,
				0.05799999460577965
			],
			"translation":[
				-0.3100000023841858,
				0.8799999952316284,
				0.029999999329447746
			]
		},
		{
			"mesh":42,
			"name":"Ice_Crystal_11",
			"rotation":[
				0.1370658427476883,
				0.09741412103176117,
				0.07474847882986069,
				0.9829222559928894
			],
			"scale":[
				0.014999999664723873,
				0.07999999821186066,
				0.014999999664723873
			],
			"translation":[
				-0.33000001311302185,
				0.800000011920929,
				0.05999999865889549
			]
		},
		{
			"mesh":43,
			"name":"Ice_Crystal_12",
			"rotation":[
				0.08707278966903687,
				0.0038016801699995995,
				0.0434534028172493,
				0.9952466487884521
			],
			"scale":[
				0.01600000075995922,
				0.09000000357627869,
				0.01600000075995922
			],
			"translation":[
				-0.3100000023841858,
				0.7799999713897705,
				0.05999999865889549
			]
		},
		{
			"mesh":44,
			"name":"Ice_Crystal_13",
			"rotation":[
				0.06969008594751358,
				-0.043513134121894836,
				0.0030427349265664816,
				0.9966146945953369
			],
			"scale":[
				0.01600000075995922,
				0.08500000089406967,
				0.01600000075995922
			],
			"translation":[
				-0.28999999165534973,
				0.7900000214576721,
				0.05000000074505806
			]
		},
		{
			"mesh":45,
			"name":"Ice_Crystal_14",
			"rotation":[
				0.047210101038217545,
				-0.08888531476259232,
				-0.03961397707462311,
				0.994133472442627
			],
			"scale":[
				0.014000000432133675,
				0.07500000298023224,
				0.014000000432133675
			],
			"translation":[
				-0.27000001072883606,
				0.8100000023841858,
				0.03999999910593033
			]
		},
		{
			"mesh":46,
			"name":"Ice_Crystal_15",
			"rotation":[
				0.2753719985485077,
				0.3038559854030609,
				0.23014847934246063,
				0.8825381398200989
			],
			"scale":[
				0.014999999664723873,
				0.06999999284744263,
				0.014999999664723873
			],
			"translation":[
				-0.3400000035762787,
				0.8299999833106995,
				0.009999999776482582
			]
		},
		{
			"mesh":47,
			"name":"Left_Boot_Cuff",
			"scale":[
				1,
				1,
				1.100000023841858
			],
			"translation":[
				-0.10999999940395355,
				0.3199999928474426,
				-0.009999999776482582
			]
		},
		{
			"mesh":48,
			"name":"Left_Boot_Foot",
			"rotation":[
				0,
				-0.06975648552179337,
				0,
				0.9975640773773193
			],
			"scale":[
				0.8999999761581421,
				0.699999988079071,
				1.6999999284744263
			],
			"translation":[
				-0.10999999940395355,
				0.05999999865889549,
				0.05999999865889549
			]
		},
		{
			"mesh":49,
			"name":"Left_Boot_Shaft",
			"scale":[
				0.949999988079071,
				1,
				1.149999976158142
			],
			"translation":[
				-0.10999999940395355,
				0.20000000298023224,
				0
			]
		},
		{
			"mesh":50,
			"name":"Left_Boot_Sole",
			"rotation":[
				0,
				-0.06975647807121277,
				0,
				0.9975640773773193
			],
			"scale":[
				0.949999988079071,
				0.25,
				1.7999999523162842
			],
			"translation":[
				-0.10999999940395355,
				0.014999999664723873,
				0.05999999865889549
			]
		},
		{
			"mesh":51,
			"name":"Left_Shin",
			"translation":[
				-0.10999999940395355,
				0.4399999976158142,
				-0.009999999776482582
			]
		},
		{
			"mesh":52,
			"name":"Left_Thigh",
			"rotation":[
				0.043604444712400436,
				0.0011418225476518273,
				0.02615203894674778,
				0.9987059831619263
			],
			"translation":[
				-0.10999999940395355,
				0.6899999976158142,
				0
			]
		},
		{
			"mesh":53,
			"name":"Neck",
			"translation":[
				0,
				1.4700000286102295,
				0.009999999776482582
			]
		},
		{
			"mesh":54,
			"name":"Nose_Bridge",
			"rotation":[
				0.5877853035926819,
				0,
				0,
				0.80901700258255
			],
			"translation":[
				0,
				1.5850000381469727,
				0.13199999928474426
			]
		},
		{
			"mesh":55,
			"name":"Right_Bandaged_Forearm",
			"rotation":[
				0.13020825386047363,
				-0.009105048142373562,
				-0.06915970146656036,
				0.9890297651290894
			],
			"translation":[
				0.2800000011920929,
				1.0499999523162842,
				0.019999999552965164
			]
		},
		{
			"mesh":56,
			"name":"Right_Bicep",
			"rotation":[
				0.08667830377817154,
				-0.009110257029533386,
				-0.10413072258234024,
				0.9907375574111938
			],
			"translation":[
				0.25,
				1.2400000095367432,
				0.009999999776482582
			]
		},
		{
			"mesh":57,
			"name":"Right_Boot_Cuff",
			"scale":[
				1,
				1,
				1.100000023841858
			],
			"translation":[
				0.10999999940395355,
				0.3199999928474426,
				-0.009999999776482582
			]
		},
		{
			"mesh":58,
			"name":"Right_Boot_Foot",
			"rotation":[
				0,
				0.06975648552179337,
				0,
				0.9975640773773193
			],
			"scale":[
				0.8999999761581421,
				0.699999988079071,
				1.6999999284744263
			],
			"translation":[
				0.10999999940395355,
				0.05999999865889549,
				0.05999999865889549
			]
		},
		{
			"mesh":59,
			"name":"Right_Boot_Shaft",
			"scale":[
				0.949999988079071,
				1,
				1.149999976158142
			],
			"translation":[
				0.10999999940395355,
				0.20000000298023224,
				0
			]
		},
		{
			"mesh":60,
			"name":"Right_Boot_Sole",
			"rotation":[
				0,
				0.06975647807121277,
				0,
				0.9975640773773193
			],
			"scale":[
				0.949999988079071,
				0.25,
				1.7999999523162842
			],
			"translation":[
				0.10999999940395355,
				0.014999999664723873,
				0.05999999865889549
			]
		},
		{
			"mesh":61,
			"name":"Right_Fist",
			"rotation":[
				0.10452848672866821,
				0,
				0,
				0.994521975517273
			],
			"scale":[
				0.75,
				1.100000023841858,
				0.949999988079071
			],
			"translation":[
				0.30000001192092896,
				0.8799999952316284,
				0.029999999329447746
			]
		},
		{
			"mesh":62,
			"name":"Right_Shin",
			"translation":[
				0.10999999940395355,
				0.4399999976158142,
				-0.009999999776482582
			]
		},
		{
			"mesh":63,
			"name":"Right_Sleeve",
			"rotation":[
				0.06915970146656036,
				-0.009105048142373562,
				-0.13020825386047363,
				0.9890297651290894
			],
			"translation":[
				0.2199999988079071,
				1.340000033378601,
				0.009999999776482582
			]
		},
		{
			"mesh":64,
			"name":"Right_Thigh",
			"rotation":[
				0.043604444712400436,
				-0.0011418225476518273,
				-0.02615203894674778,
				0.9987059831619263
			],
			"translation":[
				0.10999999940395355,
				0.6899999976158142,
				0
			]
		},
		{
			"mesh":65,
			"name":"Scarf_Collar_Fold",
			"rotation":[
				0.12186934798955917,
				0,
				0,
				0.9925461411476135
			],
			"scale":[
				1.0499999523162842,
				0.7200000286102295,
				1.0499999523162842
			],
			"translation":[
				0,
				1.399999976158142,
				0.03500000014901161
			]
		},
		{
			"mesh":66,
			"name":"Scarf_Collar_Main",
			"scale":[
				1.100000023841858,
				0.8199999928474426,
				1
			],
			"translation":[
				0,
				1.440000057220459,
				0.009999999776482582
			]
		},
		{
			"mesh":67,
			"name":"Scarf_Ribbon_00",
			"rotation":[
				0.11711987107992172,
				-0.14796343445777893,
				-0.24463988840579987,
				0.9510736465454102
			],
			"scale":[
				0.06499999761581421,
				0.12999999523162842,
				0.019999999552965164
			],
			"translation":[
				0.14000000059604645,
				1.409999966621399,
				-0.05000000074505806
			]
		},
		{
			"mesh":68,
			"name":"Scarf_Ribbon_01",
			"rotation":[
				0.21467989683151245,
				-0.28532013297080994,
				-0.33527037501335144,
				0.8718365430831909
			],
			"scale":[
				0.059999994933605194,
				0.15000000596046448,
				0.018000001087784767
			],
			"translation":[
				0.23000000417232513,
				1.4299999475479126,
				-0.11999999731779099
			]
		},
		{
			"mesh":69,
			"name":"Scarf_Ribbon_02",
			"rotation":[
				0.2663317024707794,
				-0.40766915678977966,
				-0.210218608379364,
				0.8477508425712585
			],
			"scale":[
				0.054999999701976776,
				0.16999998688697815,
				0.01600000075995922
			],
			"translation":[
				0.3199999928474426,
				1.4600000381469727,
				-0.1899999976158142
			]
		},
		{
			"mesh":70,
			"name":"Scarf_Ribbon_03",
			"rotation":[
				0.13984812796115875,
				-0.5036881566047668,
				-0.06940380483865738,
				0.8496611714363098
			],
			"scale":[
				0.05000000074505806,
				0.17000000178813934,
				0.015000000596046448
			],
			"translation":[
				0.4000000059604645,
				1.4600000381469727,
				-0.23000000417232513
			]
		},
		{
			"mesh":71,
			"name":"Scarf_Ribbon_04",
			"rotation":[
				-0.15576249361038208,
				-0.6102820038795471,
				-0.01060318760573864,
				0.7766476273536682
			],
			"scale":[
				0.044999998062849045,
				0.1599999964237213,
				0.014000000432133675
			],
			"translation":[
				0.4399999976158142,
				1.399999976158142,
				-0.20999999344348907
			]
		},
		{
			"mesh":72,
			"name":"Scarf_Ribbon_05",
			"rotation":[
				-0.3809119462966919,
				-0.6797481775283813,
				-0.014241963624954224,
				0.6266144514083862
			],
			"scale":[
				0.03999999910593033,
				0.1599999964237213,
				0.011999999172985554
			],
			"translation":[
				0.44999998807907104,
				1.309999942779541,
				-0.14000000059604645
			]
		},
		{
			"mesh":73,
			"name":"Scarf_Ribbon_06",
			"rotation":[
				-0.5213338136672974,
				-0.7064337730407715,
				-0.03084355965256691,
				0.4777143597602844
			],
			"scale":[
				0.03500000014901161,
				0.15000000596046448,
				0.009999999776482582
			],
			"translation":[
				0.41999998688697815,
				1.2000000476837158,
				-0.07000000029802322
			]
		},
		{
			"mesh":74,
			"name":"Scarf_Ribbon_07",
			"rotation":[
				-0.5115627646446228,
				-0.6945754885673523,
				-0.23516899347305298,
				0.4478437006473541
			],
			"scale":[
				0.029999997466802597,
				0.12999999523162842,
				0.00800000037997961
			],
			"translation":[
				0.3799999952316284,
				1.090000033378601,
				-0.019999999552965164
			]
		},
		{
			"mesh":75,
			"name":"Studio_Floor",
			"translation":[
				0,
				-0.03999999910593033,
				0
			]
		},
		{
			"mesh":76,
			"name":"Travel_Pouch",
			"scale":[
				0.699999988079071,
				1.2000000476837158,
				1.100000023841858
			],
			"translation":[
				-0.16500000655651093,
				1.059999942779541,
				0
			]
		},
		{
			"mesh":77,
			"name":"Tunic_Chest",
			"scale":[
				1.1799999475479126,
				1,
				0.8600000143051147
			],
			"translation":[
				0,
				1.2899999618530273,
				0.009999999776482582
			]
		},
		{
			"mesh":78,
			"name":"Tunic_Waist",
			"scale":[
				1.059999942779541,
				1,
				0.8399999737739563
			],
			"translation":[
				0,
				1.1100000143051147,
				0.009999999776482582
			]
		},
		{
			"mesh":79,
			"name":"Waist_Belt",
			"scale":[
				1.059999942779541,
				1,
				0.8399999737739563
			],
			"translation":[
				0,
				1.0800000429153442,
				0.009999999776482582
			]
		}
	],
	"materials":[
		{
			"doubleSided":true,
			"name":"Mat_Silver",
			"pbrMetallicRoughness":{
				"baseColorFactor":[
					0.8500000238418579,
					0.8799999952316284,
					0.9200000166893005,
					1
				],
				"metallicFactor":0.949999988079071,
				"roughnessFactor":0.10000000149011612
			}
		},
		{
			"doubleSided":true,
			"name":"Mat_Bandages",
			"pbrMetallicRoughness":{
				"baseColorFactor":[
					0.9599999785423279,
					0.9200000166893005,
					0.8799999952316284,
					1
				],
				"metallicFactor":0,
				"roughnessFactor":0.6000000238418579
			}
		},
		{
			"doubleSided":true,
			"name":"Mat_Leather",
			"pbrMetallicRoughness":{
				"baseColorFactor":[
					0.36000001430511475,
					0.18000000715255737,
					0.07999999821186066,
					1
				],
				"metallicFactor":0.10000000149011612,
				"roughnessFactor":0.30000001192092896
			}
		},
		{
			"doubleSided":true,
			"name":"Mat_Skin",
			"pbrMetallicRoughness":{
				"baseColorFactor":[
					0.9200000166893005,
					0.6800000071525574,
					0.5,
					1
				],
				"metallicFactor":0,
				"roughnessFactor":0.5
			}
		},
		{
			"doubleSided":true,
			"name":"Mat_Tunic",
			"pbrMetallicRoughness":{
				"baseColorFactor":[
					0.11999999731779099,
					0.09000000357627869,
					0.07999999821186066,
					1
				],
				"metallicFactor":0,
				"roughnessFactor":0.699999988079071
			}
		},
		{
			"doubleSided":true,
			"name":"Mat_Eyepatch",
			"pbrMetallicRoughness":{
				"baseColorFactor":[
					0.05000000074505806,
					0.03999999910593033,
					0.05000000074505806,
					1
				],
				"metallicFactor":0.10000000149011612,
				"roughnessFactor":0.20000000298023224
			}
		},
		{
			"doubleSided":true,
			"name":"Mat_Hair",
			"pbrMetallicRoughness":{
				"baseColorFactor":[
					0.800000011920929,
					0.8199999928474426,
					0.8799999952316284,
					1
				],
				"metallicFactor":0,
				"roughnessFactor":0.30000001192092896
			}
		},
		{
			"doubleSided":true,
			"emissiveFactor":[
				0.3499999940395355,
				0.75,
				1
			],
			"extensions":{
				"KHR_materials_emissive_strength":{
					"emissiveStrength":3.5
				}
			},
			"name":"Mat_IceArm",
			"pbrMetallicRoughness":{
				"baseColorFactor":[
					0.2800000011920929,
					0.6800000071525574,
					0.949999988079071,
					1
				],
				"metallicFactor":0.10000000149011612,
				"roughnessFactor":0.10000000149011612
			}
		},
		{
			"doubleSided":true,
			"emissiveFactor":[
				1,
				0.75,
				0.30000001192092896
			],
			"extensions":{
				"KHR_materials_emissive_strength":{
					"emissiveStrength":2.799999952316284
				}
			},
			"name":"Mat_Scarf",
			"pbrMetallicRoughness":{
				"baseColorFactor":[
					0.9800000190734863,
					0.7200000286102295,
					0.2800000011920929,
					1
				],
				"metallicFactor":0,
				"roughnessFactor":0.4000000059604645
			}
		},
		{
			"doubleSided":true,
			"name":"Mat_Floor",
			"pbrMetallicRoughness":{
				"baseColorFactor":[
					0.03999999910593033,
					0.029999999329447746,
					0.05000000074505806,
					1
				],
				"metallicFactor":0,
				"roughnessFactor":0.30000001192092896
			}
		}
	],
	"meshes":[
		{
			"name":"Cube.001",
			"primitives":[
				{
					"attributes":{
						"POSITION":0,
						"NORMAL":1,
						"TEXCOORD_0":2
					},
					"indices":3,
					"material":0
				}
			]
		},
		{
			"name":"Torus.005",
			"primitives":[
				{
					"attributes":{
						"POSITION":4,
						"NORMAL":5,
						"TEXCOORD_0":6
					},
					"indices":7,
					"material":1
				}
			]
		},
		{
			"name":"Torus.006",
			"primitives":[
				{
					"attributes":{
						"POSITION":8,
						"NORMAL":9,
						"TEXCOORD_0":10
					},
					"indices":7,
					"material":1
				}
			]
		},
		{
			"name":"Torus.007",
			"primitives":[
				{
					"attributes":{
						"POSITION":11,
						"NORMAL":12,
						"TEXCOORD_0":13
					},
					"indices":7,
					"material":1
				}
			]
		},
		{
			"name":"Torus.008",
			"primitives":[
				{
					"attributes":{
						"POSITION":14,
						"NORMAL":15,
						"TEXCOORD_0":16
					},
					"indices":7,
					"material":1
				}
			]
		},
		{
			"name":"Torus.009",
			"primitives":[
				{
					"attributes":{
						"POSITION":17,
						"NORMAL":18,
						"TEXCOORD_0":19
					},
					"indices":7,
					"material":1
				}
			]
		},
		{
			"name":"Torus.010",
			"primitives":[
				{
					"attributes":{
						"POSITION":20,
						"NORMAL":21,
						"TEXCOORD_0":22
					},
					"indices":7,
					"material":1
				}
			]
		},
		{
			"name":"Cube",
			"primitives":[
				{
					"attributes":{
						"POSITION":23,
						"NORMAL":24,
						"TEXCOORD_0":25
					},
					"indices":3,
					"material":0
				}
			]
		},
		{
			"name":"Torus.004",
			"primitives":[
				{
					"attributes":{
						"POSITION":26,
						"NORMAL":27,
						"TEXCOORD_0":28
					},
					"indices":29,
					"material":2
				}
			]
		},
		{
			"name":"Cone",
			"primitives":[
				{
					"attributes":{
						"POSITION":30,
						"NORMAL":31,
						"TEXCOORD_0":32
					},
					"indices":33,
					"material":3
				}
			]
		},
		{
			"name":"Cone.017",
			"primitives":[
				{
					"attributes":{
						"POSITION":34,
						"NORMAL":35,
						"TEXCOORD_0":36
					},
					"indices":33,
					"material":4
				}
			]
		},
		{
			"name":"Sphere.001",
			"primitives":[
				{
					"attributes":{
						"POSITION":37,
						"NORMAL":38,
						"TEXCOORD_0":39
					},
					"indices":40,
					"material":5
				}
			]
		},
		{
			"name":"Sphere.002",
			"primitives":[
				{
					"attributes":{
						"POSITION":41,
						"NORMAL":42,
						"TEXCOORD_0":43
					},
					"indices":44,
					"material":0
				}
			]
		},
		{
			"name":"Torus",
			"primitives":[
				{
					"attributes":{
						"POSITION":45,
						"NORMAL":46,
						"TEXCOORD_0":47
					},
					"indices":48,
					"material":5
				}
			]
		},
		{
			"name":"Sphere.003",
			"primitives":[
				{
					"attributes":{
						"POSITION":49,
						"NORMAL":50,
						"TEXCOORD_0":51
					},
					"indices":52,
					"material":6
				}
			]
		},
		{
			"name":"Cone.002",
			"primitives":[
				{
					"attributes":{
						"POSITION":53,
						"NORMAL":54,
						"TEXCOORD_0":55
					},
					"indices":56,
					"material":6
				}
			]
		},
		{
			"name":"Cone.003",
			"primitives":[
				{
					"attributes":{
						"POSITION":57,
						"NORMAL":58,
						"TEXCOORD_0":59
					},
					"indices":56,
					"material":6
				}
			]
		},
		{
			"name":"Cone.004",
			"primitives":[
				{
					"attributes":{
						"POSITION":60,
						"NORMAL":61,
						"TEXCOORD_0":62
					},
					"indices":56,
					"material":6
				}
			]
		},
		{
			"name":"Cone.005",
			"primitives":[
				{
					"attributes":{
						"POSITION":63,
						"NORMAL":64,
						"TEXCOORD_0":65
					},
					"indices":56,
					"material":6
				}
			]
		},
		{
			"name":"Cone.006",
			"primitives":[
				{
					"attributes":{
						"POSITION":66,
						"NORMAL":67,
						"TEXCOORD_0":68
					},
					"indices":56,
					"material":6
				}
			]
		},
		{
			"name":"Cone.007",
			"primitives":[
				{
					"attributes":{
						"POSITION":69,
						"NORMAL":70,
						"TEXCOORD_0":71
					},
					"indices":56,
					"material":6
				}
			]
		},
		{
			"name":"Cone.008",
			"primitives":[
				{
					"attributes":{
						"POSITION":72,
						"NORMAL":73,
						"TEXCOORD_0":74
					},
					"indices":56,
					"material":6
				}
			]
		},
		{
			"name":"Cone.009",
			"primitives":[
				{
					"attributes":{
						"POSITION":75,
						"NORMAL":76,
						"TEXCOORD_0":77
					},
					"indices":56,
					"material":6
				}
			]
		},
		{
			"name":"Cone.010",
			"primitives":[
				{
					"attributes":{
						"POSITION":78,
						"NORMAL":79,
						"TEXCOORD_0":80
					},
					"indices":56,
					"material":6
				}
			]
		},
		{
			"name":"Cone.011",
			"primitives":[
				{
					"attributes":{
						"POSITION":81,
						"NORMAL":82,
						"TEXCOORD_0":83
					},
					"indices":56,
					"material":6
				}
			]
		},
		{
			"name":"Cone.012",
			"primitives":[
				{
					"attributes":{
						"POSITION":84,
						"NORMAL":85,
						"TEXCOORD_0":86
					},
					"indices":56,
					"material":6
				}
			]
		},
		{
			"name":"Cone.013",
			"primitives":[
				{
					"attributes":{
						"POSITION":87,
						"NORMAL":88,
						"TEXCOORD_0":89
					},
					"indices":56,
					"material":6
				}
			]
		},
		{
			"name":"Cone.014",
			"primitives":[
				{
					"attributes":{
						"POSITION":90,
						"NORMAL":91,
						"TEXCOORD_0":92
					},
					"indices":56,
					"material":6
				}
			]
		},
		{
			"name":"Cone.015",
			"primitives":[
				{
					"attributes":{
						"POSITION":93,
						"NORMAL":94,
						"TEXCOORD_0":95
					},
					"indices":56,
					"material":6
				}
			]
		},
		{
			"name":"Cone.016",
			"primitives":[
				{
					"attributes":{
						"POSITION":96,
						"NORMAL":97,
						"TEXCOORD_0":98
					},
					"indices":56,
					"material":6
				}
			]
		},
		{
			"name":"Sphere",
			"primitives":[
				{
					"attributes":{
						"POSITION":99,
						"NORMAL":100,
						"TEXCOORD_0":101
					},
					"indices":102,
					"material":3
				}
			]
		},
		{
			"name":"Cone.018",
			"primitives":[
				{
					"attributes":{
						"POSITION":103,
						"NORMAL":104,
						"TEXCOORD_0":105
					},
					"indices":106,
					"material":7
				}
			]
		},
		{
			"name":"Cone.019",
			"primitives":[
				{
					"attributes":{
						"POSITION":107,
						"NORMAL":108,
						"TEXCOORD_0":109
					},
					"indices":106,
					"material":7
				}
			]
		},
		{
			"name":"Cone.020",
			"primitives":[
				{
					"attributes":{
						"POSITION":110,
						"NORMAL":111,
						"TEXCOORD_0":112
					},
					"indices":106,
					"material":7
				}
			]
		},
		{
			"name":"Cone.021",
			"primitives":[
				{
					"attributes":{
						"POSITION":113,
						"NORMAL":114,
						"TEXCOORD_0":115
					},
					"indices":106,
					"material":7
				}
			]
		},
		{
			"name":"Cone.022",
			"primitives":[
				{
					"attributes":{
						"POSITION":116,
						"NORMAL":117,
						"TEXCOORD_0":118
					},
					"indices":106,
					"material":7
				}
			]
		},
		{
			"name":"Cone.023",
			"primitives":[
				{
					"attributes":{
						"POSITION":119,
						"NORMAL":120,
						"TEXCOORD_0":121
					},
					"indices":106,
					"material":7
				}
			]
		},
		{
			"name":"Cone.024",
			"primitives":[
				{
					"attributes":{
						"POSITION":122,
						"NORMAL":123,
						"TEXCOORD_0":124
					},
					"indices":106,
					"material":7
				}
			]
		},
		{
			"name":"Cone.025",
			"primitives":[
				{
					"attributes":{
						"POSITION":125,
						"NORMAL":126,
						"TEXCOORD_0":127
					},
					"indices":106,
					"material":7
				}
			]
		},
		{
			"name":"Cone.026",
			"primitives":[
				{
					"attributes":{
						"POSITION":128,
						"NORMAL":129,
						"TEXCOORD_0":130
					},
					"indices":106,
					"material":7
				}
			]
		},
		{
			"name":"Cone.027",
			"primitives":[
				{
					"attributes":{
						"POSITION":131,
						"NORMAL":132,
						"TEXCOORD_0":133
					},
					"indices":106,
					"material":7
				}
			]
		},
		{
			"name":"Cone.028",
			"primitives":[
				{
					"attributes":{
						"POSITION":134,
						"NORMAL":135,
						"TEXCOORD_0":136
					},
					"indices":106,
					"material":7
				}
			]
		},
		{
			"name":"Cone.029",
			"primitives":[
				{
					"attributes":{
						"POSITION":137,
						"NORMAL":138,
						"TEXCOORD_0":139
					},
					"indices":106,
					"material":7
				}
			]
		},
		{
			"name":"Cone.030",
			"primitives":[
				{
					"attributes":{
						"POSITION":140,
						"NORMAL":141,
						"TEXCOORD_0":142
					},
					"indices":106,
					"material":7
				}
			]
		},
		{
			"name":"Cone.031",
			"primitives":[
				{
					"attributes":{
						"POSITION":143,
						"NORMAL":144,
						"TEXCOORD_0":145
					},
					"indices":106,
					"material":7
				}
			]
		},
		{
			"name":"Cone.032",
			"primitives":[
				{
					"attributes":{
						"POSITION":146,
						"NORMAL":147,
						"TEXCOORD_0":148
					},
					"indices":106,
					"material":7
				}
			]
		},
		{
			"name":"Cone.033",
			"primitives":[
				{
					"attributes":{
						"POSITION":149,
						"NORMAL":150,
						"TEXCOORD_0":151
					},
					"indices":106,
					"material":7
				}
			]
		},
		{
			"name":"Torus.011",
			"primitives":[
				{
					"attributes":{
						"POSITION":152,
						"NORMAL":153,
						"TEXCOORD_0":154
					},
					"indices":155,
					"material":2
				}
			]
		},
		{
			"name":"Cube.004",
			"primitives":[
				{
					"attributes":{
						"POSITION":156,
						"NORMAL":157,
						"TEXCOORD_0":158
					},
					"indices":3,
					"material":2
				}
			]
		},
		{
			"name":"Cylinder.016",
			"primitives":[
				{
					"attributes":{
						"POSITION":159,
						"NORMAL":160,
						"TEXCOORD_0":161
					},
					"indices":162,
					"material":2
				}
			]
		},
		{
			"name":"Cube.005",
			"primitives":[
				{
					"attributes":{
						"POSITION":163,
						"NORMAL":164,
						"TEXCOORD_0":165
					},
					"indices":3,
					"material":5
				}
			]
		},
		{
			"name":"Cylinder.015",
			"primitives":[
				{
					"attributes":{
						"POSITION":166,
						"NORMAL":167,
						"TEXCOORD_0":168
					},
					"indices":162,
					"material":4
				}
			]
		},
		{
			"name":"Cylinder.014",
			"primitives":[
				{
					"attributes":{
						"POSITION":169,
						"NORMAL":170,
						"TEXCOORD_0":171
					},
					"indices":162,
					"material":4
				}
			]
		},
		{
			"name":"Cylinder",
			"primitives":[
				{
					"attributes":{
						"POSITION":172,
						"NORMAL":173,
						"TEXCOORD_0":174
					},
					"indices":162,
					"material":3
				}
			]
		},
		{
			"name":"Cone.001",
			"primitives":[
				{
					"attributes":{
						"POSITION":175,
						"NORMAL":176,
						"TEXCOORD_0":177
					},
					"indices":178,
					"material":3
				}
			]
		},
		{
			"name":"Cylinder.013",
			"primitives":[
				{
					"attributes":{
						"POSITION":179,
						"NORMAL":180,
						"TEXCOORD_0":181
					},
					"indices":162,
					"material":1
				}
			]
		},
		{
			"name":"Cylinder.012",
			"primitives":[
				{
					"attributes":{
						"POSITION":182,
						"NORMAL":183,
						"TEXCOORD_0":184
					},
					"indices":162,
					"material":3
				}
			]
		},
		{
			"name":"Torus.012",
			"primitives":[
				{
					"attributes":{
						"POSITION":185,
						"NORMAL":186,
						"TEXCOORD_0":187
					},
					"indices":155,
					"material":2
				}
			]
		},
		{
			"name":"Cube.006",
			"primitives":[
				{
					"attributes":{
						"POSITION":188,
						"NORMAL":189,
						"TEXCOORD_0":190
					},
					"indices":3,
					"material":2
				}
			]
		},
		{
			"name":"Cylinder.019",
			"primitives":[
				{
					"attributes":{
						"POSITION":191,
						"NORMAL":192,
						"TEXCOORD_0":193
					},
					"indices":162,
					"material":2
				}
			]
		},
		{
			"name":"Cube.007",
			"primitives":[
				{
					"attributes":{
						"POSITION":194,
						"NORMAL":195,
						"TEXCOORD_0":196
					},
					"indices":3,
					"material":5
				}
			]
		},
		{
			"name":"Cube.003",
			"primitives":[
				{
					"attributes":{
						"POSITION":197,
						"NORMAL":198,
						"TEXCOORD_0":199
					},
					"indices":3,
					"material":1
				}
			]
		},
		{
			"name":"Cylinder.018",
			"primitives":[
				{
					"attributes":{
						"POSITION":200,
						"NORMAL":201,
						"TEXCOORD_0":202
					},
					"indices":162,
					"material":4
				}
			]
		},
		{
			"name":"Cylinder.011",
			"primitives":[
				{
					"attributes":{
						"POSITION":203,
						"NORMAL":204,
						"TEXCOORD_0":205
					},
					"indices":162,
					"material":4
				}
			]
		},
		{
			"name":"Cylinder.017",
			"primitives":[
				{
					"attributes":{
						"POSITION":206,
						"NORMAL":207,
						"TEXCOORD_0":208
					},
					"indices":162,
					"material":4
				}
			]
		},
		{
			"name":"Torus.002",
			"primitives":[
				{
					"attributes":{
						"POSITION":209,
						"NORMAL":210,
						"TEXCOORD_0":211
					},
					"indices":212,
					"material":8
				}
			]
		},
		{
			"name":"Torus.001",
			"primitives":[
				{
					"attributes":{
						"POSITION":213,
						"NORMAL":214,
						"TEXCOORD_0":215
					},
					"indices":212,
					"material":8
				}
			]
		},
		{
			"name":"Cylinder.001",
			"primitives":[
				{
					"attributes":{
						"POSITION":216,
						"NORMAL":217,
						"TEXCOORD_0":218
					},
					"indices":219,
					"material":8
				}
			]
		},
		{
			"name":"Cylinder.002",
			"primitives":[
				{
					"attributes":{
						"POSITION":220,
						"NORMAL":221,
						"TEXCOORD_0":222
					},
					"indices":219,
					"material":8
				}
			]
		},
		{
			"name":"Cylinder.003",
			"primitives":[
				{
					"attributes":{
						"POSITION":223,
						"NORMAL":224,
						"TEXCOORD_0":225
					},
					"indices":219,
					"material":8
				}
			]
		},
		{
			"name":"Cylinder.004",
			"primitives":[
				{
					"attributes":{
						"POSITION":226,
						"NORMAL":227,
						"TEXCOORD_0":228
					},
					"indices":219,
					"material":8
				}
			]
		},
		{
			"name":"Cylinder.005",
			"primitives":[
				{
					"attributes":{
						"POSITION":229,
						"NORMAL":230,
						"TEXCOORD_0":231
					},
					"indices":219,
					"material":8
				}
			]
		},
		{
			"name":"Cylinder.006",
			"primitives":[
				{
					"attributes":{
						"POSITION":232,
						"NORMAL":233,
						"TEXCOORD_0":234
					},
					"indices":219,
					"material":8
				}
			]
		},
		{
			"name":"Cylinder.007",
			"primitives":[
				{
					"attributes":{
						"POSITION":235,
						"NORMAL":236,
						"TEXCOORD_0":237
					},
					"indices":219,
					"material":8
				}
			]
		},
		{
			"name":"Cylinder.008",
			"primitives":[
				{
					"attributes":{
						"POSITION":238,
						"NORMAL":239,
						"TEXCOORD_0":240
					},
					"indices":219,
					"material":8
				}
			]
		},
		{
			"name":"Cylinder.020",
			"primitives":[
				{
					"attributes":{
						"POSITION":241,
						"NORMAL":242,
						"TEXCOORD_0":243
					},
					"indices":244,
					"material":9
				}
			]
		},
		{
			"name":"Cube.002",
			"primitives":[
				{
					"attributes":{
						"POSITION":245,
						"NORMAL":246,
						"TEXCOORD_0":247
					},
					"indices":3,
					"material":2
				}
			]
		},
		{
			"name":"Cylinder.009",
			"primitives":[
				{
					"attributes":{
						"POSITION":248,
						"NORMAL":249,
						"TEXCOORD_0":250
					},
					"indices":33,
					"material":4
				}
			]
		},
		{
			"name":"Cylinder.010",
			"primitives":[
				{
					"attributes":{
						"POSITION":251,
						"NORMAL":252,
						"TEXCOORD_0":253
					},
					"indices":33,
					"material":4
				}
			]
		},
		{
			"name":"Torus.003",
			"primitives":[
				{
					"attributes":{
						"POSITION":254,
						"NORMAL":255,
						"TEXCOORD_0":256
					},
					"indices":29,
					"material":2
				}
			]
		}
	],
	"accessors":[
		{
			"bufferView":0,
			"componentType":5126,
			"count":14,
			"max":[
				0.01899999938905239,
				0.01899999938905239,
				0.01899999938905239
			],
			"min":[
				-0.01899999938905239,
				-0.01899999938905239,
				-0.01899999938905239
			],
			"type":"VEC3"
		},
		{
			"bufferView":1,
			"componentType":5126,
			"count":14,
			"type":"VEC3"
		},
		{
			"bufferView":2,
			"componentType":5126,
			"count":14,
			"type":"VEC2"
		},
		{
			"bufferView":3,
			"componentType":5123,
			"count":36,
			"type":"SCALAR"
		},
		{
			"bufferView":4,
			"componentType":5126,
			"count":189,
			"max":[
				0.06200000271201134,
				0.00800000037997961,
				0.06200000271201134
			],
			"min":[
				-0.06200000271201134,
				-0.00800000037997961,
				-0.06200000271201134
			],
			"type":"VEC3"
		},
		{
			"bufferView":5,
			"componentType":5126,
			"count":189,
			"type":"VEC3"
		},
		{
			"bufferView":6,
			"componentType":5126,
			"count":189,
			"type":"VEC2"
		},
		{
			"bufferView":7,
			"componentType":5123,
			"count":960,
			"type":"SCALAR"
		},
		{
			"bufferView":8,
			"componentType":5126,
			"count":189,
			"max":[
				0.06200000271201134,
				0.00800000037997961,
				0.06200000271201134
			],
			"min":[
				-0.06200000271201134,
				-0.00800000037997961,
				-0.06200000271201134
			],
			"type":"VEC3"
		},
		{
			"bufferView":9,
			"componentType":5126,
			"count":189,
			"type":"VEC3"
		},
		{
			"bufferView":10,
			"componentType":5126,
			"count":189,
			"type":"VEC2"
		},
		{
			"bufferView":11,
			"componentType":5126,
			"count":189,
			"max":[
				0.06200000271201134,
				0.00800000037997961,
				0.06200000271201134
			],
			"min":[
				-0.06200000271201134,
				-0.00800000037997961,
				-0.06200000271201134
			],
			"type":"VEC3"
		},
		{
			"bufferView":12,
			"componentType":5126,
			"count":189,
			"type":"VEC3"
		},
		{
			"bufferView":13,
			"componentType":5126,
			"count":189,
			"type":"VEC2"
		},
		{
			"bufferView":14,
			"componentType":5126,
			"count":189,
			"max":[
				0.06200000271201134,
				0.00800000037997961,
				0.06200000271201134
			],
			"min":[
				-0.06200000271201134,
				-0.00800000037997961,
				-0.06200000271201134
			],
			"type":"VEC3"
		},
		{
			"bufferView":15,
			"componentType":5126,
			"count":189,
			"type":"VEC3"
		},
		{
			"bufferView":16,
			"componentType":5126,
			"count":189,
			"type":"VEC2"
		},
		{
			"bufferView":17,
			"componentType":5126,
			"count":189,
			"max":[
				0.06200000271201134,
				0.00800000037997961,
				0.06200000271201134
			],
			"min":[
				-0.06200000271201134,
				-0.00800000037997961,
				-0.06200000271201134
			],
			"type":"VEC3"
		},
		{
			"bufferView":18,
			"componentType":5126,
			"count":189,
			"type":"VEC3"
		},
		{
			"bufferView":19,
			"componentType":5126,
			"count":189,
			"type":"VEC2"
		},
		{
			"bufferView":20,
			"componentType":5126,
			"count":189,
			"max":[
				0.06200000271201134,
				0.00800000037997961,
				0.06200000271201134
			],
			"min":[
				-0.06200000271201134,
				-0.00800000037997961,
				-0.06200000271201134
			],
			"type":"VEC3"
		},
		{
			"bufferView":21,
			"componentType":5126,
			"count":189,
			"type":"VEC3"
		},
		{
			"bufferView":22,
			"componentType":5126,
			"count":189,
			"type":"VEC2"
		},
		{
			"bufferView":23,
			"componentType":5126,
			"count":14,
			"max":[
				0.023000000044703484,
				0.023000000044703484,
				0.023000000044703484
			],
			"min":[
				-0.023000000044703484,
				-0.023000000044703484,
				-0.023000000044703484
			],
			"type":"VEC3"
		},
		{
			"bufferView":24,
			"componentType":5126,
			"count":14,
			"type":"VEC3"
		},
		{
			"bufferView":25,
			"componentType":5126,
			"count":14,
			"type":"VEC2"
		},
		{
			"bufferView":26,
			"componentType":5126,
			"count":363,
			"max":[
				0.21899999678134918,
				0.013314791955053806,
				0.21899999678134918
			],
			"min":[
				-0.21899999678134918,
				-0.013314791955053806,
				-0.21899999678134918
			],
			"type":"VEC3"
		},
		{
			"bufferView":27,
			"componentType":5126,
			"count":363,
			"type":"VEC3"
		},
		{
			"bufferView":28,
			"componentType":5126,
			"count":363,
			"type":"VEC2"
		},
		{
			"bufferView":29,
			"componentType":5123,
			"count":1920,
			"type":"SCALAR"
		},
		{
			"bufferView":30,
			"componentType":5126,
			"count":98,
			"max":[
				0.07500000298023224,
				0.04500000178813934,
				0.07500000298023224
			],
			"min":[
				-0.07500000298023224,
				-0.04500000178813934,
				-0.07500000298023224
			],
			"type":"VEC3"
		},
		{
			"bufferView":31,
			"componentType":5126,
			"count":98,
			"type":"VEC3"
		},
		{
			"bufferView":32,
			"componentType":5126,
			"count":98,
			"type":"VEC2"
		},
		{
			"bufferView":33,
			"componentType":5123,
			"count":276,
			"type":"SCALAR"
		},
		{
			"bufferView":34,
			"componentType":5126,
			"count":98,
			"max":[
				0.27000001072883606,
				0.20000000298023224,
				0.27000001072883606
			],
			"min":[
				-0.27000001072883606,
				-0.20000000298023224,
				-0.27000001072883606
			],
			"type":"VEC3"
		},
		{
			"bufferView":35,
			"componentType":5126,
			"count":98,
			"type":"VEC3"
		},
		{
			"bufferView":36,
			"componentType":5126,
			"count":98,
			"type":"VEC2"
		},
		{
			"bufferView":37,
			"componentType":5126,
			"count":185,
			"max":[
				0.037999995052814484,
				0.03799999877810478,
				0.037999995052814484
			],
			"min":[
				-0.037999991327524185,
				-0.03799999877810478,
				-0.03799999877810478
			],
			"type":"VEC3"
		},
		{
			"bufferView":38,
			"componentType":5126,
			"count":185,
			"type":"VEC3"
		},
		{
			"bufferView":39,
			"componentType":5126,
			"count":185,
			"type":"VEC2"
		},
		{
			"bufferView":40,
			"componentType":5123,
			"count":864,
			"type":"SCALAR"
		},
		{
			"bufferView":41,
			"componentType":5126,
			"count":115,
			"max":[
				0.008999999612569809,
				0.008999999612569809,
				0.008999999612569809
			],
			"min":[
				-0.008999999612569809,
				-0.008999999612569809,
				-0.008999999612569809
			],
			"type":"VEC3"
		},
		{
			"bufferView":42,
			"componentType":5126,
			"count":115,
			"type":"VEC3"
		},
		{
			"bufferView":43,
			"componentType":5126,
			"count":115,
			"type":"VEC2"
		},
		{
			"bufferView":44,
			"componentType":5123,
			"count":504,
			"type":"SCALAR"
		},
		{
			"bufferView":45,
			"componentType":5126,
			"count":297,
			"max":[
				0.1290000081062317,
				0.007000000216066837,
				0.1290000081062317
			],
			"min":[
				-0.1290000081062317,
				-0.007000000216066837,
				-0.1290000081062317
			],
			"type":"VEC3"
		},
		{
			"bufferView":46,
			"componentType":5126,
			"count":297,
			"type":"VEC3"
		},
		{
			"bufferView":47,
			"componentType":5126,
			"count":297,
			"type":"VEC2"
		},
		{
			"bufferView":48,
			"componentType":5123,
			"count":1536,
			"type":"SCALAR"
		},
		{
			"bufferView":49,
			"componentType":5126,
			"count":423,
			"max":[
				0.14499996602535248,
				0.14499999582767487,
				0.14499995112419128
			],
			"min":[
				-0.14499995112419128,
				-0.14499999582767487,
				-0.14499999582767487
			],
			"type":"VEC3"
		},
		{
			"bufferView":50,
			"componentType":5126,
			"count":423,
			"type":"VEC3"
		},
		{
			"bufferView":51,
			"componentType":5126,
			"count":423,
			"type":"VEC2"
		},
		{
			"bufferView":52,
			"componentType":5123,
			"count":2160,
			"type":"SCALAR"
		},
		{
			"bufferView":53,
			"componentType":5126,
			"count":17,
			"max":[
				1,
				1,
				1
			],
			"min":[
				-1,
				-1,
				-1
			],
			"type":"VEC3"
		},
		{
			"bufferView":54,
			"componentType":5126,
			"count":17,
			"type":"VEC3"
		},
		{
			"bufferView":55,
			"componentType":5126,
			"count":17,
			"type":"VEC2"
		},
		{
			"bufferView":56,
			"componentType":5123,
			"count":42,
			"type":"SCALAR"
		},
		{
			"bufferView":57,
			"componentType":5126,
			"count":17,
			"max":[
				1,
				1,
				1
			],
			"min":[
				-1,
				-1,
				-1
			],
			"type":"VEC3"
		},
		{
			"bufferView":58,
			"componentType":5126,
			"count":17,
			"type":"VEC3"
		},
		{
			"bufferView":59,
			"componentType":5126,
			"count":17,
			"type":"VEC2"
		},
		{
			"bufferView":60,
			"componentType":5126,
			"count":17,
			"max":[
				1,
				1,
				1
			],
			"min":[
				-1,
				-1,
				-1
			],
			"type":"VEC3"
		},
		{
			"bufferView":61,
			"componentType":5126,
			"count":17,
			"type":"VEC3"
		},
		{
			"bufferView":62,
			"componentType":5126,
			"count":17,
			"type":"VEC2"
		},
		{
			"bufferView":63,
			"componentType":5126,
			"count":17,
			"max":[
				1,
				1,
				1
			],
			"min":[
				-1,
				-1,
				-1
			],
			"type":"VEC3"
		},
		{
			"bufferView":64,
			"componentType":5126,
			"count":17,
			"type":"VEC3"
		},
		{
			"bufferView":65,
			"componentType":5126,
			"count":17,
			"type":"VEC2"
		},
		{
			"bufferView":66,
			"componentType":5126,
			"count":17,
			"max":[
				1,
				1,
				1
			],
			"min":[
				-1,
				-1,
				-1
			],
			"type":"VEC3"
		},
		{
			"bufferView":67,
			"componentType":5126,
			"count":17,
			"type":"VEC3"
		},
		{
			"bufferView":68,
			"componentType":5126,
			"count":17,
			"type":"VEC2"
		},
		{
			"bufferView":69,
			"componentType":5126,
			"count":17,
			"max":[
				1,
				1,
				1
			],
			"min":[
				-1,
				-1,
				-1
			],
			"type":"VEC3"
		},
		{
			"bufferView":70,
			"componentType":5126,
			"count":17,
			"type":"VEC3"
		},
		{
			"bufferView":71,
			"componentType":5126,
			"count":17,
			"type":"VEC2"
		},
		{
			"bufferView":72,
			"componentType":5126,
			"count":17,
			"max":[
				1,
				1,
				1
			],
			"min":[
				-1,
				-1,
				-1
			],
			"type":"VEC3"
		},
		{
			"bufferView":73,
			"componentType":5126,
			"count":17,
			"type":"VEC3"
		},
		{
			"bufferView":74,
			"componentType":5126,
			"count":17,
			"type":"VEC2"
		},
		{
			"bufferView":75,
			"componentType":5126,
			"count":17,
			"max":[
				1,
				1,
				1
			],
			"min":[
				-1,
				-1,
				-1
			],
			"type":"VEC3"
		},
		{
			"bufferView":76,
			"componentType":5126,
			"count":17,
			"type":"VEC3"
		},
		{
			"bufferView":77,
			"componentType":5126,
			"count":17,
			"type":"VEC2"
		},
		{
			"bufferView":78,
			"componentType":5126,
			"count":17,
			"max":[
				1,
				1,
				1
			],
			"min":[
				-1,
				-1,
				-1
			],
			"type":"VEC3"
		},
		{
			"bufferView":79,
			"componentType":5126,
			"count":17,
			"type":"VEC3"
		},
		{
			"bufferView":80,
			"componentType":5126,
			"count":17,
			"type":"VEC2"
		},
		{
			"bufferView":81,
			"componentType":5126,
			"count":17,
			"max":[
				1,
				1,
				1
			],
			"min":[
				-1,
				-1,
				-1
			],
			"type":"VEC3"
		},
		{
			"bufferView":82,
			"componentType":5126,
			"count":17,
			"type":"VEC3"
		},
		{
			"bufferView":83,
			"componentType":5126,
			"count":17,
			"type":"VEC2"
		},
		{
			"bufferView":84,
			"componentType":5126,
			"count":17,
			"max":[
				1,
				1,
				1
			],
			"min":[
				-1,
				-1,
				-1
			],
			"type":"VEC3"
		},
		{
			"bufferView":85,
			"componentType":5126,
			"count":17,
			"type":"VEC3"
		},
		{
			"bufferView":86,
			"componentType":5126,
			"count":17,
			"type":"VEC2"
		},
		{
			"bufferView":87,
			"componentType":5126,
			"count":17,
			"max":[
				1,
				1,
				1
			],
			"min":[
				-1,
				-1,
				-1
			],
			"type":"VEC3"
		},
		{
			"bufferView":88,
			"componentType":5126,
			"count":17,
			"type":"VEC3"
		},
		{
			"bufferView":89,
			"componentType":5126,
			"count":17,
			"type":"VEC2"
		},
		{
			"bufferView":90,
			"componentType":5126,
			"count":17,
			"max":[
				1,
				1,
				1
			],
			"min":[
				-1,
				-1,
				-1
			],
			"type":"VEC3"
		},
		{
			"bufferView":91,
			"componentType":5126,
			"count":17,
			"type":"VEC3"
		},
		{
			"bufferView":92,
			"componentType":5126,
			"count":17,
			"type":"VEC2"
		},
		{
			"bufferView":93,
			"componentType":5126,
			"count":17,
			"max":[
				1,
				1,
				1
			],
			"min":[
				-1,
				-1,
				-1
			],
			"type":"VEC3"
		},
		{
			"bufferView":94,
			"componentType":5126,
			"count":17,
			"type":"VEC3"
		},
		{
			"bufferView":95,
			"componentType":5126,
			"count":17,
			"type":"VEC2"
		},
		{
			"bufferView":96,
			"componentType":5126,
			"count":17,
			"max":[
				1,
				1,
				1
			],
			"min":[
				-1,
				-1,
				-1
			],
			"type":"VEC3"
		},
		{
			"bufferView":97,
			"componentType":5126,
			"count":17,
			"type":"VEC3"
		},
		{
			"bufferView":98,
			"componentType":5126,
			"count":17,
			"type":"VEC2"
		},
		{
			"bufferView":99,
			"componentType":5126,
			"count":691,
			"max":[
				0.12499996274709702,
				0.125,
				0.12499991804361343
			],
			"min":[
				-0.12499988079071045,
				-0.125,
				-0.12499985098838806
			],
			"type":"VEC3"
		},
		{
			"bufferView":100,
			"componentType":5126,
			"count":691,
			"type":"VEC3"
		},
		{
			"bufferView":101,
			"componentType":5126,
			"count":691,
			"type":"VEC2"
		},
		{
			"bufferView":102,
			"componentType":5123,
			"count":3648,
			"type":"SCALAR"
		},
		{
			"bufferView":103,
			"componentType":5126,
			"count":24,
			"max":[
				0.8660253882408142,
				1,
				1
			],
			"min":[
				-0.8660253882408142,
				-1,
				-1
			],
			"type":"VEC3"
		},
		{
			"bufferView":104,
			"componentType":5126,
			"count":24,
			"type":"VEC3"
		},
		{
			"bufferView":105,
			"componentType":5126,
			"count":24,
			"type":"VEC2"
		},
		{
			"bufferView":106,
			"componentType":5123,
			"count":30,
			"type":"SCALAR"
		},
		{
			"bufferView":107,
			"componentType":5126,
			"count":24,
			"max":[
				0.8660253882408142,
				1,
				1
			],
			"min":[
				-0.8660253882408142,
				-1,
				-1
			],
			"type":"VEC3"
		},
		{
			"bufferView":108,
			"componentType":5126,
			"count":24,
			"type":"VEC3"
		},
		{
			"bufferView":109,
			"componentType":5126,
			"count":24,
			"type":"VEC2"
		},
		{
			"bufferView":110,
			"componentType":5126,
			"count":24,
			"max":[
				0.8660253882408142,
				1,
				1
			],
			"min":[
				-0.8660253882408142,
				-1,
				-1
			],
			"type":"VEC3"
		},
		{
			"bufferView":111,
			"componentType":5126,
			"count":24,
			"type":"VEC3"
		},
		{
			"bufferView":112,
			"componentType":5126,
			"count":24,
			"type":"VEC2"
		},
		{
			"bufferView":113,
			"componentType":5126,
			"count":24,
			"max":[
				0.8660253882408142,
				1,
				1
			],
			"min":[
				-0.8660253882408142,
				-1,
				-1
			],
			"type":"VEC3"
		},
		{
			"bufferView":114,
			"componentType":5126,
			"count":24,
			"type":"VEC3"
		},
		{
			"bufferView":115,
			"componentType":5126,
			"count":24,
			"type":"VEC2"
		},
		{
			"bufferView":116,
			"componentType":5126,
			"count":24,
			"max":[
				0.8660253882408142,
				1,
				1
			],
			"min":[
				-0.8660253882408142,
				-1,
				-1
			],
			"type":"VEC3"
		},
		{
			"bufferView":117,
			"componentType":5126,
			"count":24,
			"type":"VEC3"
		},
		{
			"bufferView":118,
			"componentType":5126,
			"count":24,
			"type":"VEC2"
		},
		{
			"bufferView":119,
			"componentType":5126,
			"count":24,
			"max":[
				0.8660253882408142,
				1,
				1
			],
			"min":[
				-0.8660253882408142,
				-1,
				-1
			],
			"type":"VEC3"
		},
		{
			"bufferView":120,
			"componentType":5126,
			"count":24,
			"type":"VEC3"
		},
		{
			"bufferView":121,
			"componentType":5126,
			"count":24,
			"type":"VEC2"
		},
		{
			"bufferView":122,
			"componentType":5126,
			"count":24,
			"max":[
				0.8660253882408142,
				1,
				1
			],
			"min":[
				-0.8660253882408142,
				-1,
				-1
			],
			"type":"VEC3"
		},
		{
			"bufferView":123,
			"componentType":5126,
			"count":24,
			"type":"VEC3"
		},
		{
			"bufferView":124,
			"componentType":5126,
			"count":24,
			"type":"VEC2"
		},
		{
			"bufferView":125,
			"componentType":5126,
			"count":24,
			"max":[
				0.8660253882408142,
				1,
				1
			],
			"min":[
				-0.8660253882408142,
				-1,
				-1
			],
			"type":"VEC3"
		},
		{
			"bufferView":126,
			"componentType":5126,
			"count":24,
			"type":"VEC3"
		},
		{
			"bufferView":127,
			"componentType":5126,
			"count":24,
			"type":"VEC2"
		},
		{
			"bufferView":128,
			"componentType":5126,
			"count":24,
			"max":[
				0.8660253882408142,
				1,
				1
			],
			"min":[
				-0.8660253882408142,
				-1,
				-1
			],
			"type":"VEC3"
		},
		{
			"bufferView":129,
			"componentType":5126,
			"count":24,
			"type":"VEC3"
		},
		{
			"bufferView":130,
			"componentType":5126,
			"count":24,
			"type":"VEC2"
		},
		{
			"bufferView":131,
			"componentType":5126,
			"count":24,
			"max":[
				0.8660253882408142,
				1,
				1
			],
			"min":[
				-0.8660253882408142,
				-1,
				-1
			],
			"type":"VEC3"
		},
		{
			"bufferView":132,
			"componentType":5126,
			"count":24,
			"type":"VEC3"
		},
		{
			"bufferView":133,
			"componentType":5126,
			"count":24,
			"type":"VEC2"
		},
		{
			"bufferView":134,
			"componentType":5126,
			"count":24,
			"max":[
				0.8660253882408142,
				1,
				1
			],
			"min":[
				-0.8660253882408142,
				-1,
				-1
			],
			"type":"VEC3"
		},
		{
			"bufferView":135,
			"componentType":5126,
			"count":24,
			"type":"VEC3"
		},
		{
			"bufferView":136,
			"componentType":5126,
			"count":24,
			"type":"VEC2"
		},
		{
			"bufferView":137,
			"componentType":5126,
			"count":24,
			"max":[
				0.8660253882408142,
				1,
				1
			],
			"min":[
				-0.8660253882408142,
				-1,
				-1
			],
			"type":"VEC3"
		},
		{
			"bufferView":138,
			"componentType":5126,
			"count":24,
			"type":"VEC3"
		},
		{
			"bufferView":139,
			"componentType":5126,
			"count":24,
			"type":"VEC2"
		},
		{
			"bufferView":140,
			"componentType":5126,
			"count":24,
			"max":[
				0.8660253882408142,
				1,
				1
			],
			"min":[
				-0.8660253882408142,
				-1,
				-1
			],
			"type":"VEC3"
		},
		{
			"bufferView":141,
			"componentType":5126,
			"count":24,
			"type":"VEC3"
		},
		{
			"bufferView":142,
			"componentType":5126,
			"count":24,
			"type":"VEC2"
		},
		{
			"bufferView":143,
			"componentType":5126,
			"count":24,
			"max":[
				0.8660253882408142,
				1,
				1
			],
			"min":[
				-0.8660253882408142,
				-1,
				-1
			],
			"type":"VEC3"
		},
		{
			"bufferView":144,
			"componentType":5126,
			"count":24,
			"type":"VEC3"
		},
		{
			"bufferView":145,
			"componentType":5126,
			"count":24,
			"type":"VEC2"
		},
		{
			"bufferView":146,
			"componentType":5126,
			"count":24,
			"max":[
				0.8660253882408142,
				1,
				1
			],
			"min":[
				-0.8660253882408142,
				-1,
				-1
			],
			"type":"VEC3"
		},
		{
			"bufferView":147,
			"componentType":5126,
			"count":24,
			"type":"VEC3"
		},
		{
			"bufferView":148,
			"componentType":5126,
			"count":24,
			"type":"VEC2"
		},
		{
			"bufferView":149,
			"componentType":5126,
			"count":24,
			"max":[
				0.8660253882408142,
				1,
				1
			],
			"min":[
				-0.8660253882408142,
				-1,
				-1
			],
			"type":"VEC3"
		},
		{
			"bufferView":150,
			"componentType":5126,
			"count":24,
			"type":"VEC3"
		},
		{
			"bufferView":151,
			"componentType":5126,
			"count":24,
			"type":"VEC2"
		},
		{
			"bufferView":152,
			"componentType":5126,
			"count":275,
			"max":[
				0.10400000214576721,
				0.02282535657286644,
				0.10400000214576721
			],
			"min":[
				-0.10400000214576721,
				-0.02282535657286644,
				-0.10400000214576721
			],
			"type":"VEC3"
		},
		{
			"bufferView":153,
			"componentType":5126,
			"count":275,
			"type":"VEC3"
		},
		{
			"bufferView":154,
			"componentType":5126,
			"count":275,
			"type":"VEC2"
		},
		{
			"bufferView":155,
			"componentType":5123,
			"count":1440,
			"type":"SCALAR"
		},
		{
			"bufferView":156,
			"componentType":5126,
			"count":14,
			"max":[
				0.05999999865889549,
				0.05999999865889549,
				0.05999999865889549
			],
			"min":[
				-0.05999999865889549,
				-0.05999999865889549,
				-0.05999999865889549
			],
			"type":"VEC3"
		},
		{
			"bufferView":157,
			"componentType":5126,
			"count":14,
			"type":"VEC3"
		},
		{
			"bufferView":158,
			"componentType":5126,
			"count":14,
			"type":"VEC2"
		},
		{
			"bufferView":159,
			"componentType":5126,
			"count":82,
			"max":[
				0.06800000369548798,
				0.10999999940395355,
				0.06800000369548798
			],
			"min":[
				-0.06800000369548798,
				-0.10999999940395355,
				-0.06800000369548798
			],
			"type":"VEC3"
		},
		{
			"bufferView":160,
			"componentType":5126,
			"count":82,
			"type":"VEC3"
		},
		{
			"bufferView":161,
			"componentType":5126,
			"count":82,
			"type":"VEC2"
		},
		{
			"bufferView":162,
			"componentType":5123,
			"count":228,
			"type":"SCALAR"
		},
		{
			"bufferView":163,
			"componentType":5126,
			"count":14,
			"max":[
				0.05999999865889549,
				0.05999999865889549,
				0.05999999865889549
			],
			"min":[
				-0.05999999865889549,
				-0.05999999865889549,
				-0.05999999865889549
			],
			"type":"VEC3"
		},
		{
			"bufferView":164,
			"componentType":5126,
			"count":14,
			"type":"VEC3"
		},
		{
			"bufferView":165,
			"componentType":5126,
			"count":14,
			"type":"VEC2"
		},
		{
			"bufferView":166,
			"componentType":5126,
			"count":82,
			"max":[
				0.07000000029802322,
				0.14000000059604645,
				0.07000000029802322
			],
			"min":[
				-0.07000000029802322,
				-0.14000000059604645,
				-0.07000000029802322
			],
			"type":"VEC3"
		},
		{
			"bufferView":167,
			"componentType":5126,
			"count":82,
			"type":"VEC3"
		},
		{
			"bufferView":168,
			"componentType":5126,
			"count":82,
			"type":"VEC2"
		},
		{
			"bufferView":169,
			"componentType":5126,
			"count":82,
			"max":[
				0.07599999755620956,
				0.16500000655651093,
				0.07599999755620956
			],
			"min":[
				-0.07599999755620956,
				-0.16500000655651093,
				-0.07599999755620956
			],
			"type":"VEC3"
		},
		{
			"bufferView":170,
			"componentType":5126,
			"count":82,
			"type":"VEC3"
		},
		{
			"bufferView":171,
			"componentType":5126,
			"count":82,
			"type":"VEC2"
		},
		{
			"bufferView":172,
			"componentType":5126,
			"count":82,
			"max":[
				0.054999999701976776,
				0.06499999761581421,
				0.054999999701976776
			],
			"min":[
				-0.054999999701976776,
				-0.06499999761581421,
				-0.054999999701976776
			],
			"type":"VEC3"
		},
		{
			"bufferView":173,
			"componentType":5126,
			"count":82,
			"type":"VEC3"
		},
		{
			"bufferView":174,
			"componentType":5126,
			"count":82,
			"type":"VEC2"
		},
		{
			"bufferView":175,
			"componentType":5126,
			"count":26,
			"max":[
				0.012990380637347698,
				0.01600000075995922,
				0.014999999664723873
			],
			"min":[
				-0.012990380637347698,
				-0.01600000075995922,
				-0.014999999664723873
			],
			"type":"VEC3"
		},
		{
			"bufferView":176,
			"componentType":5126,
			"count":26,
			"type":"VEC3"
		},
		{
			"bufferView":177,
			"componentType":5126,
			"count":26,
			"type":"VEC2"
		},
		{
			"bufferView":178,
			"componentType":5123,
			"count":60,
			"type":"SCALAR"
		},
		{
			"bufferView":179,
			"componentType":5126,
			"count":82,
			"max":[
				0.052000001072883606,
				0.11500000208616257,
				0.052000001072883606
			],
			"min":[
				-0.052000001072883606,
				-0.11500000208616257,
				-0.052000001072883606
			],
			"type":"VEC3"
		},
		{
			"bufferView":180,
			"componentType":5126,
			"count":82,
			"type":"VEC3"
		},
		{
			"bufferView":181,
			"componentType":5126,
			"count":82,
			"type":"VEC2"
		},
		{
			"bufferView":182,
			"componentType":5126,
			"count":82,
			"max":[
				0.05400000140070915,
				0.07000000029802322,
				0.05400000140070915
			],
			"min":[
				-0.05400000140070915,
				-0.07000000029802322,
				-0.05400000140070915
			],
			"type":"VEC3"
		},
		{
			"bufferView":183,
			"componentType":5126,
			"count":82,
			"type":"VEC3"
		},
		{
			"bufferView":184,
			"componentType":5126,
			"count":82,
			"type":"VEC2"
		},
		{
			"bufferView":185,
			"componentType":5126,
			"count":275,
			"max":[
				0.10400000214576721,
				0.02282535657286644,
				0.10400000214576721
			],
			"min":[
				-0.10400000214576721,
				-0.02282535657286644,
				-0.10400000214576721
			],
			"type":"VEC3"
		},
		{
			"bufferView":186,
			"componentType":5126,
			"count":275,
			"type":"VEC3"
		},
		{
			"bufferView":187,
			"componentType":5126,
			"count":275,
			"type":"VEC2"
		},
		{
			"bufferView":188,
			"componentType":5126,
			"count":14,
			"max":[
				0.05999999865889549,
				0.05999999865889549,
				0.05999999865889549
			],
			"min":[
				-0.05999999865889549,
				-0.05999999865889549,
				-0.05999999865889549
			],
			"type":"VEC3"
		},
		{
			"bufferView":189,
			"componentType":5126,
			"count":14,
			"type":"VEC3"
		},
		{
			"bufferView":190,
			"componentType":5126,
			"count":14,
			"type":"VEC2"
		},
		{
			"bufferView":191,
			"componentType":5126,
			"count":82,
			"max":[
				0.06800000369548798,
				0.10999999940395355,
				0.06800000369548798
			],
			"min":[
				-0.06800000369548798,
				-0.10999999940395355,
				-0.06800000369548798
			],
			"type":"VEC3"
		},
		{
			"bufferView":192,
			"componentType":5126,
			"count":82,
			"type":"VEC3"
		},
		{
			"bufferView":193,
			"componentType":5126,
			"count":82,
			"type":"VEC2"
		},
		{
			"bufferView":194,
			"componentType":5126,
			"count":14,
			"max":[
				0.05999999865889549,
				0.05999999865889549,
				0.05999999865889549
			],
			"min":[
				-0.05999999865889549,
				-0.05999999865889549,
				-0.05999999865889549
			],
			"type":"VEC3"
		},
		{
			"bufferView":195,
			"componentType":5126,
			"count":14,
			"type":"VEC3"
		},
		{
			"bufferView":196,
			"componentType":5126,
			"count":14,
			"type":"VEC2"
		},
		{
			"bufferView":197,
			"componentType":5126,
			"count":14,
			"max":[
				0.03400000184774399,
				0.03400000184774399,
				0.03400000184774399
			],
			"min":[
				-0.03400000184774399,
				-0.03400000184774399,
				-0.03400000184774399
			],
			"type":"VEC3"
		},
		{
			"bufferView":198,
			"componentType":5126,
			"count":14,
			"type":"VEC3"
		},
		{
			"bufferView":199,
			"componentType":5126,
			"count":14,
			"type":"VEC2"
		},
		{
			"bufferView":200,
			"componentType":5126,
			"count":82,
			"max":[
				0.07000000029802322,
				0.14000000059604645,
				0.07000000029802322
			],
			"min":[
				-0.07000000029802322,
				-0.14000000059604645,
				-0.07000000029802322
			],
			"type":"VEC3"
		},
		{
			"bufferView":201,
			"componentType":5126,
			"count":82,
			"type":"VEC3"
		},
		{
			"bufferView":202,
			"componentType":5126,
			"count":82,
			"type":"VEC2"
		},
		{
			"bufferView":203,
			"componentType":5126,
			"count":82,
			"max":[
				0.07000000029802322,
				0.054999999701976776,
				0.07000000029802322
			],
			"min":[
				-0.07000000029802322,
				-0.054999999701976776,
				-0.07000000029802322
			],
			"type":"VEC3"
		},
		{
			"bufferView":204,
			"componentType":5126,
			"count":82,
			"type":"VEC3"
		},
		{
			"bufferView":205,
			"componentType":5126,
			"count":82,
			"type":"VEC2"
		},
		{
			"bufferView":206,
			"componentType":5126,
			"count":82,
			"max":[
				0.07599999755620956,
				0.16500000655651093,
				0.07599999755620956
			],
			"min":[
				-0.07599999755620956,
				-0.16500000655651093,
				-0.07599999755620956
			],
			"type":"VEC3"
		},
		{
			"bufferView":207,
			"componentType":5126,
			"count":82,
			"type":"VEC3"
		},
		{
			"bufferView":208,
			"componentType":5126,
			"count":82,
			"type":"VEC2"
		},
		{
			"bufferView":209,
			"componentType":5126,
			"count":561,
			"max":[
				0.18199999630451202,
				0.041999999433755875,
				0.18199999630451202
			],
			"min":[
				-0.18199999630451202,
				-0.041999999433755875,
				-0.18199999630451202
			],
			"type":"VEC3"
		},
		{
			"bufferView":210,
			"componentType":5126,
			"count":561,
			"type":"VEC3"
		},
		{
			"bufferView":211,
			"componentType":5126,
			"count":561,
			"type":"VEC2"
		},
		{
			"bufferView":212,
			"componentType":5123,
			"count":3072,
			"type":"SCALAR"
		},
		{
			"bufferView":213,
			"componentType":5126,
			"count":561,
			"max":[
				0.18299999833106995,
				0.04800000041723251,
				0.18299999833106995
			],
			"min":[
				-0.18299999833106995,
				-0.04800000041723251,
				-0.18299999833106995
			],
			"type":"VEC3"
		},
		{
			"bufferView":214,
			"componentType":5126,
			"count":561,
			"type":"VEC3"
		},
		{
			"bufferView":215,
			"componentType":5126,
			"count":561,
			"type":"VEC2"
		},
		{
			"bufferView":216,
			"componentType":5126,
			"count":66,
			"max":[
				1,
				1,
				1
			],
			"min":[
				-1,
				-1,
				-1
			],
			"type":"VEC3"
		},
		{
			"bufferView":217,
			"componentType":5126,
			"count":66,
			"type":"VEC3"
		},
		{
			"bufferView":218,
			"componentType":5126,
			"count":66,
			"type":"VEC2"
		},
		{
			"bufferView":219,
			"componentType":5123,
			"count":180,
			"type":"SCALAR"
		},
		{
			"bufferView":220,
			"componentType":5126,
			"count":66,
			"max":[
				1,
				1,
				1
			],
			"min":[
				-1,
				-1,
				-1
			],
			"type":"VEC3"
		},
		{
			"bufferView":221,
			"componentType":5126,
			"count":66,
			"type":"VEC3"
		},
		{
			"bufferView":222,
			"componentType":5126,
			"count":66,
			"type":"VEC2"
		},
		{
			"bufferView":223,
			"componentType":5126,
			"count":66,
			"max":[
				1,
				1,
				1
			],
			"min":[
				-1,
				-1,
				-1
			],
			"type":"VEC3"
		},
		{
			"bufferView":224,
			"componentType":5126,
			"count":66,
			"type":"VEC3"
		},
		{
			"bufferView":225,
			"componentType":5126,
			"count":66,
			"type":"VEC2"
		},
		{
			"bufferView":226,
			"componentType":5126,
			"count":66,
			"max":[
				1,
				1,
				1
			],
			"min":[
				-1,
				-1,
				-1
			],
			"type":"VEC3"
		},
		{
			"bufferView":227,
			"componentType":5126,
			"count":66,
			"type":"VEC3"
		},
		{
			"bufferView":228,
			"componentType":5126,
			"count":66,
			"type":"VEC2"
		},
		{
			"bufferView":229,
			"componentType":5126,
			"count":66,
			"max":[
				1,
				1,
				1
			],
			"min":[
				-1,
				-1,
				-1
			],
			"type":"VEC3"
		},
		{
			"bufferView":230,
			"componentType":5126,
			"count":66,
			"type":"VEC3"
		},
		{
			"bufferView":231,
			"componentType":5126,
			"count":66,
			"type":"VEC2"
		},
		{
			"bufferView":232,
			"componentType":5126,
			"count":66,
			"max":[
				1,
				1,
				1
			],
			"min":[
				-1,
				-1,
				-1
			],
			"type":"VEC3"
		},
		{
			"bufferView":233,
			"componentType":5126,
			"count":66,
			"type":"VEC3"
		},
		{
			"bufferView":234,
			"componentType":5126,
			"count":66,
			"type":"VEC2"
		},
		{
			"bufferView":235,
			"componentType":5126,
			"count":66,
			"max":[
				1,
				1,
				1
			],
			"min":[
				-1,
				-1,
				-1
			],
			"type":"VEC3"
		},
		{
			"bufferView":236,
			"componentType":5126,
			"count":66,
			"type":"VEC3"
		},
		{
			"bufferView":237,
			"componentType":5126,
			"count":66,
			"type":"VEC2"
		},
		{
			"bufferView":238,
			"componentType":5126,
			"count":66,
			"max":[
				1,
				1,
				1
			],
			"min":[
				-1,
				-1,
				-1
			],
			"type":"VEC3"
		},
		{
			"bufferView":239,
			"componentType":5126,
			"count":66,
			"type":"VEC3"
		},
		{
			"bufferView":240,
			"componentType":5126,
			"count":66,
			"type":"VEC2"
		},
		{
			"bufferView":241,
			"componentType":5126,
			"count":130,
			"max":[
				1.7999999523162842,
				0.03999999910593033,
				1.7999999523162842
			],
			"min":[
				-1.7999999523162842,
				-0.03999999910593033,
				-1.7999999523162842
			],
			"type":"VEC3"
		},
		{
			"bufferView":242,
			"componentType":5126,
			"count":130,
			"type":"VEC3"
		},
		{
			"bufferView":243,
			"componentType":5126,
			"count":130,
			"type":"VEC2"
		},
		{
			"bufferView":244,
			"componentType":5123,
			"count":372,
			"type":"SCALAR"
		},
		{
			"bufferView":245,
			"componentType":5126,
			"count":14,
			"max":[
				0.032499998807907104,
				0.032499998807907104,
				0.032499998807907104
			],
			"min":[
				-0.032499998807907104,
				-0.032499998807907104,
				-0.032499998807907104
			],
			"type":"VEC3"
		},
		{
			"bufferView":246,
			"componentType":5126,
			"count":14,
			"type":"VEC3"
		},
		{
			"bufferView":247,
			"componentType":5126,
			"count":14,
			"type":"VEC2"
		},
		{
			"bufferView":248,
			"componentType":5126,
			"count":98,
			"max":[
				0.16500000655651093,
				0.14000000059604645,
				0.16500000655651093
			],
			"min":[
				-0.16500000655651093,
				-0.14000000059604645,
				-0.16500000655651093
			],
			"type":"VEC3"
		},
		{
			"bufferView":249,
			"componentType":5126,
			"count":98,
			"type":"VEC3"
		},
		{
			"bufferView":250,
			"componentType":5126,
			"count":98,
			"type":"VEC2"
		},
		{
			"bufferView":251,
			"componentType":5126,
			"count":98,
			"max":[
				0.14499999582767487,
				0.10000000149011612,
				0.14499999582767487
			],
			"min":[
				-0.14499999582767487,
				-0.10000000149011612,
				-0.14499999582767487
			],
			"type":"VEC3"
		},
		{
			"bufferView":252,
			"componentType":5126,
			"count":98,
			"type":"VEC3"
		},
		{
			"bufferView":253,
			"componentType":5126,
			"count":98,
			"type":"VEC2"
		},
		{
			"bufferView":254,
			"componentType":5126,
			"count":363,
			"max":[
				0.17599999904632568,
				0.017119016498327255,
				0.17599999904632568
			],
			"min":[
				-0.17599999904632568,
				-0.017119016498327255,
				-0.17599999904632568
			],
			"type":"VEC3"
		},
		{
			"bufferView":255,
			"componentType":5126,
			"count":363,
			"type":"VEC3"
		},
		{
			"bufferView":256,
			"componentType":5126,
			"count":363,
			"type":"VEC2"
		}
	],
	"bufferViews":[
		{
			"buffer":0,
			"byteLength":168,
			"byteOffset":0,
			"target":34962
		},
		{
			"buffer":0,
			"byteLength":168,
			"byteOffset":168,
			"target":34962
		},
		{
			"buffer":0,
			"byteLength":112,
			"byteOffset":336,
			"target":34962
		},
		{
			"buffer":0,
			"byteLength":72,
			"byteOffset":448,
			"target":34963
		},
		{
			"buffer":0,
			"byteLength":2268,
			"byteOffset":520,
			"target":34962
		},
		{
			"buffer":0,
			"byteLength":2268,
			"byteOffset":2788,
			"target":34962
		},
		{
			"buffer":0,
			"byteLength":1512,
			"byteOffset":5056,
			"target":34962
		},
		{
			"buffer":0,
			"byteLength":1920,
			"byteOffset":6568,
			"target":34963
		},
		{
			"buffer":0,
			"byteLength":2268,
			"byteOffset":8488,
			"target":34962
		},
		{
			"buffer":0,
			"byteLength":2268,
			"byteOffset":10756,
			"target":34962
		},
		{
			"buffer":0,
			"byteLength":1512,
			"byteOffset":13024,
			"target":34962
		},
		{
			"buffer":0,
			"byteLength":2268,
			"byteOffset":14536,
			"target":34962
		},
		{
			"buffer":0,
			"byteLength":2268,
			"byteOffset":16804,
			"target":34962
		},
		{
			"buffer":0,
			"byteLength":1512,
			"byteOffset":19072,
			"target":34962
		},
		{
			"buffer":0,
			"byteLength":2268,
			"byteOffset":20584,
			"target":34962
		},
		{
			"buffer":0,
			"byteLength":2268,
			"byteOffset":22852,
			"target":34962
		},
		{
			"buffer":0,
			"byteLength":1512,
			"byteOffset":25120,
			"target":34962
		},
		{
			"buffer":0,
			"byteLength":2268,
			"byteOffset":26632,
			"target":34962
		},
		{
			"buffer":0,
			"byteLength":2268,
			"byteOffset":28900,
			"target":34962
		},
		{
			"buffer":0,
			"byteLength":1512,
			"byteOffset":31168,
			"target":34962
		},
		{
			"buffer":0,
			"byteLength":2268,
			"byteOffset":32680,
			"target":34962
		},
		{
			"buffer":0,
			"byteLength":2268,
			"byteOffset":34948,
			"target":34962
		},
		{
			"buffer":0,
			"byteLength":1512,
			"byteOffset":37216,
			"target":34962
		},
		{
			"buffer":0,
			"byteLength":168,
			"byteOffset":38728,
			"target":34962
		},
		{
			"buffer":0,
			"byteLength":168,
			"byteOffset":38896,
			"target":34962
		},
		{
			"buffer":0,
			"byteLength":112,
			"byteOffset":39064,
			"target":34962
		},
		{
			"buffer":0,
			"byteLength":4356,
			"byteOffset":39176,
			"target":34962
		},
		{
			"buffer":0,
			"byteLength":4356,
			"byteOffset":43532,
			"target":34962
		},
		{
			"buffer":0,
			"byteLength":2904,
			"byteOffset":47888,
			"target":34962
		},
		{
			"buffer":0,
			"byteLength":3840,
			"byteOffset":50792,
			"target":34963
		},
		{
			"buffer":0,
			"byteLength":1176,
			"byteOffset":54632,
			"target":34962
		},
		{
			"buffer":0,
			"byteLength":1176,
			"byteOffset":55808,
			"target":34962
		},
		{
			"buffer":0,
			"byteLength":784,
			"byteOffset":56984,
			"target":34962
		},
		{
			"buffer":0,
			"byteLength":552,
			"byteOffset":57768,
			"target":34963
		},
		{
			"buffer":0,
			"byteLength":1176,
			"byteOffset":58320,
			"target":34962
		},
		{
			"buffer":0,
			"byteLength":1176,
			"byteOffset":59496,
			"target":34962
		},
		{
			"buffer":0,
			"byteLength":784,
			"byteOffset":60672,
			"target":34962
		},
		{
			"buffer":0,
			"byteLength":2220,
			"byteOffset":61456,
			"target":34962
		},
		{
			"buffer":0,
			"byteLength":2220,
			"byteOffset":63676,
			"target":34962
		},
		{
			"buffer":0,
			"byteLength":1480,
			"byteOffset":65896,
			"target":34962
		},
		{
			"buffer":0,
			"byteLength":1728,
			"byteOffset":67376,
			"target":34963
		},
		{
			"buffer":0,
			"byteLength":1380,
			"byteOffset":69104,
			"target":34962
		},
		{
			"buffer":0,
			"byteLength":1380,
			"byteOffset":70484,
			"target":34962
		},
		{
			"buffer":0,
			"byteLength":920,
			"byteOffset":71864,
			"target":34962
		},
		{
			"buffer":0,
			"byteLength":1008,
			"byteOffset":72784,
			"target":34963
		},
		{
			"buffer":0,
			"byteLength":3564,
			"byteOffset":73792,
			"target":34962
		},
		{
			"buffer":0,
			"byteLength":3564,
			"byteOffset":77356,
			"target":34962
		},
		{
			"buffer":0,
			"byteLength":2376,
			"byteOffset":80920,
			"target":34962
		},
		{
			"buffer":0,
			"byteLength":3072,
			"byteOffset":83296,
			"target":34963
		},
		{
			"buffer":0,
			"byteLength":5076,
			"byteOffset":86368,
			"target":34962
		},
		{
			"buffer":0,
			"byteLength":5076,
			"byteOffset":91444,
			"target":34962
		},
		{
			"buffer":0,
			"byteLength":3384,
			"byteOffset":96520,
			"target":34962
		},
		{
			"buffer":0,
			"byteLength":4320,
			"byteOffset":99904,
			"target":34963
		},
		{
			"buffer":0,
			"byteLength":204,
			"byteOffset":104224,
			"target":34962
		},
		{
			"buffer":0,
			"byteLength":204,
			"byteOffset":104428,
			"target":34962
		},
		{
			"buffer":0,
			"byteLength":136,
			"byteOffset":104632,
			"target":34962
		},
		{
			"buffer":0,
			"byteLength":84,
			"byteOffset":104768,
			"target":34963
		},
		{
			"buffer":0,
			"byteLength":204,
			"byteOffset":104852,
			"target":34962
		},
		{
			"buffer":0,
			"byteLength":204,
			"byteOffset":105056,
			"target":34962
		},
		{
			"buffer":0,
			"byteLength":136,
			"byteOffset":105260,
			"target":34962
		},
		{
			"buffer":0,
			"byteLength":204,
			"byteOffset":105396,
			"target":34962
		},
		{
			"buffer":0,
			"byteLength":204,
			"byteOffset":105600,
			"target":34962
		},
		{
			"buffer":0,
			"byteLength":136,
			"byteOffset":105804,
			"target":34962
		},
		{
			"buffer":0,
			"byteLength":204,
			"byteOffset":105940,
			"target":34962
		},
		{
			"buffer":0,
			"byteLength":204,
			"byteOffset":106144,
			"target":34962
		},
		{
			"buffer":0,
			"byteLength":136,
			"byteOffset":106348,
			"target":34962
		},
		{
			"buffer":0,
			"byteLength":204,
			"byteOffset":106484,
			"target":34962
		},
		{
			"buffer":0,
			"byteLength":204,
			"byteOffset":106688,
			"target":34962
		},
		{
			"buffer":0,
			"byteLength":136,
			"byteOffset":106892,
			"target":34962
		},
		{
			"buffer":0,
			"byteLength":204,
			"byteOffset":107028,
			"target":34962
		},
		{
			"buffer":0,
			"byteLength":204,
			"byteOffset":107232,
			"target":34962
		},
		{
			"buffer":0,
			"byteLength":136,
			"byteOffset":107436,
			"target":34962
		},
		{
			"buffer":0,
			"byteLength":204,
			"byteOffset":107572,
			"target":34962
		},
		{
			"buffer":0,
			"byteLength":204,
			"byteOffset":107776,
			"target":34962
		},
		{
			"buffer":0,
			"byteLength":136,
			"byteOffset":107980,
			"target":34962
		},
		{
			"buffer":0,
			"byteLength":204,
			"byteOffset":108116,
			"target":34962
		},
		{
			"buffer":0,
			"byteLength":204,
			"byteOffset":108320,
			"target":34962
		},
		{
			"buffer":0,
			"byteLength":136,
			"byteOffset":108524,
			"target":34962
		},
		{
			"buffer":0,
			"byteLength":204,
			"byteOffset":108660,
			"target":34962
		},
		{
			"buffer":0,
			"byteLength":204,
			"byteOffset":108864,
			"target":34962
		},
		{
			"buffer":0,
			"byteLength":136,
			"byteOffset":109068,
			"target":34962
		},
		{
			"buffer":0,
			"byteLength":204,
			"byteOffset":109204,
			"target":34962
		},
		{
			"buffer":0,
			"byteLength":204,
			"byteOffset":109408,
			"target":34962
		},
		{
			"buffer":0,
			"byteLength":136,
			"byteOffset":109612,
			"target":34962
		},
		{
			"buffer":0,
			"byteLength":204,
			"byteOffset":109748,
			"target":34962
		},
		{
			"buffer":0,
			"byteLength":204,
			"byteOffset":109952,
			"target":34962
		},
		{
			"buffer":0,
			"byteLength":136,
			"byteOffset":110156,
			"target":34962
		},
		{
			"buffer":0,
			"byteLength":204,
			"byteOffset":110292,
			"target":34962
		},
		{
			"buffer":0,
			"byteLength":204,
			"byteOffset":110496,
			"target":34962
		},
		{
			"buffer":0,
			"byteLength":136,
			"byteOffset":110700,
			"target":34962
		},
		{
			"buffer":0,
			"byteLength":204,
			"byteOffset":110836,
			"target":34962
		},
		{
			"buffer":0,
			"byteLength":204,
			"byteOffset":111040,
			"target":34962
		},
		{
			"buffer":0,
			"byteLength":136,
			"byteOffset":111244,
			"target":34962
		},
		{
			"buffer":0,
			"byteLength":204,
			"byteOffset":111380,
			"target":34962
		},
		{
			"buffer":0,
			"byteLength":204,
			"byteOffset":111584,
			"target":34962
		},
		{
			"buffer":0,
			"byteLength":136,
			"byteOffset":111788,
			"target":34962
		},
		{
			"buffer":0,
			"byteLength":204,
			"byteOffset":111924,
			"target":34962
		},
		{
			"buffer":0,
			"byteLength":204,
			"byteOffset":112128,
			"target":34962
		},
		{
			"buffer":0,
			"byteLength":136,
			"byteOffset":112332,
			"target":34962
		},
		{
			"buffer":0,
			"byteLength":8292,
			"byteOffset":112468,
			"target":34962
		},
		{
			"buffer":0,
			"byteLength":8292,
			"byteOffset":120760,
			"target":34962
		},
		{
			"buffer":0,
			"byteLength":5528,
			"byteOffset":129052,
			"target":34962
		},
		{
			"buffer":0,
			"byteLength":7296,
			"byteOffset":134580,
			"target":34963
		},
		{
			"buffer":0,
			"byteLength":288,
			"byteOffset":141876,
			"target":34962
		},
		{
			"buffer":0,
			"byteLength":288,
			"byteOffset":142164,
			"target":34962
		},
		{
			"buffer":0,
			"byteLength":192,
			"byteOffset":142452,
			"target":34962
		},
		{
			"buffer":0,
			"byteLength":60,
			"byteOffset":142644,
			"target":34963
		},
		{
			"buffer":0,
			"byteLength":288,
			"byteOffset":142704,
			"target":34962
		},
		{
			"buffer":0,
			"byteLength":288,
			"byteOffset":142992,
			"target":34962
		},
		{
			"buffer":0,
			"byteLength":192,
			"byteOffset":143280,
			"target":34962
		},
		{
			"buffer":0,
			"byteLength":288,
			"byteOffset":143472,
			"target":34962
		},
		{
			"buffer":0,
			"byteLength":288,
			"byteOffset":143760,
			"target":34962
		},
		{
			"buffer":0,
			"byteLength":192,
			"byteOffset":144048,
			"target":34962
		},
		{
			"buffer":0,
			"byteLength":288,
			"byteOffset":144240,
			"target":34962
		},
		{
			"buffer":0,
			"byteLength":288,
			"byteOffset":144528,
			"target":34962
		},
		{
			"buffer":0,
			"byteLength":192,
			"byteOffset":144816,
			"target":34962
		},
		{
			"buffer":0,
			"byteLength":288,
			"byteOffset":145008,
			"target":34962
		},
		{
			"buffer":0,
			"byteLength":288,
			"byteOffset":145296,
			"target":34962
		},
		{
			"buffer":0,
			"byteLength":192,
			"byteOffset":145584,
			"target":34962
		},
		{
			"buffer":0,
			"byteLength":288,
			"byteOffset":145776,
			"target":34962
		},
		{
			"buffer":0,
			"byteLength":288,
			"byteOffset":146064,
			"target":34962
		},
		{
			"buffer":0,
			"byteLength":192,
			"byteOffset":146352,
			"target":34962
		},
		{
			"buffer":0,
			"byteLength":288,
			"byteOffset":146544,
			"target":34962
		},
		{
			"buffer":0,
			"byteLength":288,
			"byteOffset":146832,
			"target":34962
		},
		{
			"buffer":0,
			"byteLength":192,
			"byteOffset":147120,
			"target":34962
		},
		{
			"buffer":0,
			"byteLength":288,
			"byteOffset":147312,
			"target":34962
		},
		{
			"buffer":0,
			"byteLength":288,
			"byteOffset":147600,
			"target":34962
		},
		{
			"buffer":0,
			"byteLength":192,
			"byteOffset":147888,
			"target":34962
		},
		{
			"buffer":0,
			"byteLength":288,
			"byteOffset":148080,
			"target":34962
		},
		{
			"buffer":0,
			"byteLength":288,
			"byteOffset":148368,
			"target":34962
		},
		{
			"buffer":0,
			"byteLength":192,
			"byteOffset":148656,
			"target":34962
		},
		{
			"buffer":0,
			"byteLength":288,
			"byteOffset":148848,
			"target":34962
		},
		{
			"buffer":0,
			"byteLength":288,
			"byteOffset":149136,
			"target":34962
		},
		{
			"buffer":0,
			"byteLength":192,
			"byteOffset":149424,
			"target":34962
		},
		{
			"buffer":0,
			"byteLength":288,
			"byteOffset":149616,
			"target":34962
		},
		{
			"buffer":0,
			"byteLength":288,
			"byteOffset":149904,
			"target":34962
		},
		{
			"buffer":0,
			"byteLength":192,
			"byteOffset":150192,
			"target":34962
		},
		{
			"buffer":0,
			"byteLength":288,
			"byteOffset":150384,
			"target":34962
		},
		{
			"buffer":0,
			"byteLength":288,
			"byteOffset":150672,
			"target":34962
		},
		{
			"buffer":0,
			"byteLength":192,
			"byteOffset":150960,
			"target":34962
		},
		{
			"buffer":0,
			"byteLength":288,
			"byteOffset":151152,
			"target":34962
		},
		{
			"buffer":0,
			"byteLength":288,
			"byteOffset":151440,
			"target":34962
		},
		{
			"buffer":0,
			"byteLength":192,
			"byteOffset":151728,
			"target":34962
		},
		{
			"buffer":0,
			"byteLength":288,
			"byteOffset":151920,
			"target":34962
		},
		{
			"buffer":0,
			"byteLength":288,
			"byteOffset":152208,
			"target":34962
		},
		{
			"buffer":0,
			"byteLength":192,
			"byteOffset":152496,
			"target":34962
		},
		{
			"buffer":0,
			"byteLength":288,
			"byteOffset":152688,
			"target":34962
		},
		{
			"buffer":0,
			"byteLength":288,
			"byteOffset":152976,
			"target":34962
		},
		{
			"buffer":0,
			"byteLength":192,
			"byteOffset":153264,
			"target":34962
		},
		{
			"buffer":0,
			"byteLength":288,
			"byteOffset":153456,
			"target":34962
		},
		{
			"buffer":0,
			"byteLength":288,
			"byteOffset":153744,
			"target":34962
		},
		{
			"buffer":0,
			"byteLength":192,
			"byteOffset":154032,
			"target":34962
		},
		{
			"buffer":0,
			"byteLength":3300,
			"byteOffset":154224,
			"target":34962
		},
		{
			"buffer":0,
			"byteLength":3300,
			"byteOffset":157524,
			"target":34962
		},
		{
			"buffer":0,
			"byteLength":2200,
			"byteOffset":160824,
			"target":34962
		},
		{
			"buffer":0,
			"byteLength":2880,
			"byteOffset":163024,
			"target":34963
		},
		{
			"buffer":0,
			"byteLength":168,
			"byteOffset":165904,
			"target":34962
		},
		{
			"buffer":0,
			"byteLength":168,
			"byteOffset":166072,
			"target":34962
		},
		{
			"buffer":0,
			"byteLength":112,
			"byteOffset":166240,
			"target":34962
		},
		{
			"buffer":0,
			"byteLength":984,
			"byteOffset":166352,
			"target":34962
		},
		{
			"buffer":0,
			"byteLength":984,
			"byteOffset":167336,
			"target":34962
		},
		{
			"buffer":0,
			"byteLength":656,
			"byteOffset":168320,
			"target":34962
		},
		{
			"buffer":0,
			"byteLength":456,
			"byteOffset":168976,
			"target":34963
		},
		{
			"buffer":0,
			"byteLength":168,
			"byteOffset":169432,
			"target":34962
		},
		{
			"buffer":0,
			"byteLength":168,
			"byteOffset":169600,
			"target":34962
		},
		{
			"buffer":0,
			"byteLength":112,
			"byteOffset":169768,
			"target":34962
		},
		{
			"buffer":0,
			"byteLength":984,
			"byteOffset":169880,
			"target":34962
		},
		{
			"buffer":0,
			"byteLength":984,
			"byteOffset":170864,
			"target":34962
		},
		{
			"buffer":0,
			"byteLength":656,
			"byteOffset":171848,
			"target":34962
		},
		{
			"buffer":0,
			"byteLength":984,
			"byteOffset":172504,
			"target":34962
		},
		{
			"buffer":0,
			"byteLength":984,
			"byteOffset":173488,
			"target":34962
		},
		{
			"buffer":0,
			"byteLength":656,
			"byteOffset":174472,
			"target":34962
		},
		{
			"buffer":0,
			"byteLength":984,
			"byteOffset":175128,
			"target":34962
		},
		{
			"buffer":0,
			"byteLength":984,
			"byteOffset":176112,
			"target":34962
		},
		{
			"buffer":0,
			"byteLength":656,
			"byteOffset":177096,
			"target":34962
		},
		{
			"buffer":0,
			"byteLength":312,
			"byteOffset":177752,
			"target":34962
		},
		{
			"buffer":0,
			"byteLength":312,
			"byteOffset":178064,
			"target":34962
		},
		{
			"buffer":0,
			"byteLength":208,
			"byteOffset":178376,
			"target":34962
		},
		{
			"buffer":0,
			"byteLength":120,
			"byteOffset":178584,
			"target":34963
		},
		{
			"buffer":0,
			"byteLength":984,
			"byteOffset":178704,
			"target":34962
		},
		{
			"buffer":0,
			"byteLength":984,
			"byteOffset":179688,
			"target":34962
		},
		{
			"buffer":0,
			"byteLength":656,
			"byteOffset":180672,
			"target":34962
		},
		{
			"buffer":0,
			"byteLength":984,
			"byteOffset":181328,
			"target":34962
		},
		{
			"buffer":0,
			"byteLength":984,
			"byteOffset":182312,
			"target":34962
		},
		{
			"buffer":0,
			"byteLength":656,
			"byteOffset":183296,
			"target":34962
		},
		{
			"buffer":0,
			"byteLength":3300,
			"byteOffset":183952,
			"target":34962
		},
		{
			"buffer":0,
			"byteLength":3300,
			"byteOffset":187252,
			"target":34962
		},
		{
			"buffer":0,
			"byteLength":2200,
			"byteOffset":190552,
			"target":34962
		},
		{
			"buffer":0,
			"byteLength":168,
			"byteOffset":192752,
			"target":34962
		},
		{
			"buffer":0,
			"byteLength":168,
			"byteOffset":192920,
			"target":34962
		},
		{
			"buffer":0,
			"byteLength":112,
			"byteOffset":193088,
			"target":34962
		},
		{
			"buffer":0,
			"byteLength":984,
			"byteOffset":193200,
			"target":34962
		},
		{
			"buffer":0,
			"byteLength":984,
			"byteOffset":194184,
			"target":34962
		},
		{
			"buffer":0,
			"byteLength":656,
			"byteOffset":195168,
			"target":34962
		},
		{
			"buffer":0,
			"byteLength":168,
			"byteOffset":195824,
			"target":34962
		},
		{
			"buffer":0,
			"byteLength":168,
			"byteOffset":195992,
			"target":34962
		},
		{
			"buffer":0,
			"byteLength":112,
			"byteOffset":196160,
			"target":34962
		},
		{
			"buffer":0,
			"byteLength":168,
			"byteOffset":196272,
			"target":34962
		},
		{
			"buffer":0,
			"byteLength":168,
			"byteOffset":196440,
			"target":34962
		},
		{
			"buffer":0,
			"byteLength":112,
			"byteOffset":196608,
			"target":34962
		},
		{
			"buffer":0,
			"byteLength":984,
			"byteOffset":196720,
			"target":34962
		},
		{
			"buffer":0,
			"byteLength":984,
			"byteOffset":197704,
			"target":34962
		},
		{
			"buffer":0,
			"byteLength":656,
			"byteOffset":198688,
			"target":34962
		},
		{
			"buffer":0,
			"byteLength":984,
			"byteOffset":199344,
			"target":34962
		},
		{
			"buffer":0,
			"byteLength":984,
			"byteOffset":200328,
			"target":34962
		},
		{
			"buffer":0,
			"byteLength":656,
			"byteOffset":201312,
			"target":34962
		},
		{
			"buffer":0,
			"byteLength":984,
			"byteOffset":201968,
			"target":34962
		},
		{
			"buffer":0,
			"byteLength":984,
			"byteOffset":202952,
			"target":34962
		},
		{
			"buffer":0,
			"byteLength":656,
			"byteOffset":203936,
			"target":34962
		},
		{
			"buffer":0,
			"byteLength":6732,
			"byteOffset":204592,
			"target":34962
		},
		{
			"buffer":0,
			"byteLength":6732,
			"byteOffset":211324,
			"target":34962
		},
		{
			"buffer":0,
			"byteLength":4488,
			"byteOffset":218056,
			"target":34962
		},
		{
			"buffer":0,
			"byteLength":6144,
			"byteOffset":222544,
			"target":34963
		},
		{
			"buffer":0,
			"byteLength":6732,
			"byteOffset":228688,
			"target":34962
		},
		{
			"buffer":0,
			"byteLength":6732,
			"byteOffset":235420,
			"target":34962
		},
		{
			"buffer":0,
			"byteLength":4488,
			"byteOffset":242152,
			"target":34962
		},
		{
			"buffer":0,
			"byteLength":792,
			"byteOffset":246640,
			"target":34962
		},
		{
			"buffer":0,
			"byteLength":792,
			"byteOffset":247432,
			"target":34962
		},
		{
			"buffer":0,
			"byteLength":528,
			"byteOffset":248224,
			"target":34962
		},
		{
			"buffer":0,
			"byteLength":360,
			"byteOffset":248752,
			"target":34963
		},
		{
			"buffer":0,
			"byteLength":792,
			"byteOffset":249112,
			"target":34962
		},
		{
			"buffer":0,
			"byteLength":792,
			"byteOffset":249904,
			"target":34962
		},
		{
			"buffer":0,
			"byteLength":528,
			"byteOffset":250696,
			"target":34962
		},
		{
			"buffer":0,
			"byteLength":792,
			"byteOffset":251224,
			"target":34962
		},
		{
			"buffer":0,
			"byteLength":792,
			"byteOffset":252016,
			"target":34962
		},
		{
			"buffer":0,
			"byteLength":528,
			"byteOffset":252808,
			"target":34962
		},
		{
			"buffer":0,
			"byteLength":792,
			"byteOffset":253336,
			"target":34962
		},
		{
			"buffer":0,
			"byteLength":792,
			"byteOffset":254128,
			"target":34962
		},
		{
			"buffer":0,
			"byteLength":528,
			"byteOffset":254920,
			"target":34962
		},
		{
			"buffer":0,
			"byteLength":792,
			"byteOffset":255448,
			"target":34962
		},
		{
			"buffer":0,
			"byteLength":792,
			"byteOffset":256240,
			"target":34962
		},
		{
			"buffer":0,
			"byteLength":528,
			"byteOffset":257032,
			"target":34962
		},
		{
			"buffer":0,
			"byteLength":792,
			"byteOffset":257560,
			"target":34962
		},
		{
			"buffer":0,
			"byteLength":792,
			"byteOffset":258352,
			"target":34962
		},
		{
			"buffer":0,
			"byteLength":528,
			"byteOffset":259144,
			"target":34962
		},
		{
			"buffer":0,
			"byteLength":792,
			"byteOffset":259672,
			"target":34962
		},
		{
			"buffer":0,
			"byteLength":792,
			"byteOffset":260464,
			"target":34962
		},
		{
			"buffer":0,
			"byteLength":528,
			"byteOffset":261256,
			"target":34962
		},
		{
			"buffer":0,
			"byteLength":792,
			"byteOffset":261784,
			"target":34962
		},
		{
			"buffer":0,
			"byteLength":792,
			"byteOffset":262576,
			"target":34962
		},
		{
			"buffer":0,
			"byteLength":528,
			"byteOffset":263368,
			"target":34962
		},
		{
			"buffer":0,
			"byteLength":1560,
			"byteOffset":263896,
			"target":34962
		},
		{
			"buffer":0,
			"byteLength":1560,
			"byteOffset":265456,
			"target":34962
		},
		{
			"buffer":0,
			"byteLength":1040,
			"byteOffset":267016,
			"target":34962
		},
		{
			"buffer":0,
			"byteLength":744,
			"byteOffset":268056,
			"target":34963
		},
		{
			"buffer":0,
			"byteLength":168,
			"byteOffset":268800,
			"target":34962
		},
		{
			"buffer":0,
			"byteLength":168,
			"byteOffset":268968,
			"target":34962
		},
		{
			"buffer":0,
			"byteLength":112,
			"byteOffset":269136,
			"target":34962
		},
		{
			"buffer":0,
			"byteLength":1176,
			"byteOffset":269248,
			"target":34962
		},
		{
			"buffer":0,
			"byteLength":1176,
			"byteOffset":270424,
			"target":34962
		},
		{
			"buffer":0,
			"byteLength":784,
			"byteOffset":271600,
			"target":34962
		},
		{
			"buffer":0,
			"byteLength":1176,
			"byteOffset":272384,
			"target":34962
		},
		{
			"buffer":0,
			"byteLength":1176,
			"byteOffset":273560,
			"target":34962
		},
		{
			"buffer":0,
			"byteLength":784,
			"byteOffset":274736,
			"target":34962
		},
		{
			"buffer":0,
			"byteLength":4356,
			"byteOffset":275520,
			"target":34962
		},
		{
			"buffer":0,
			"byteLength":4356,
			"byteOffset":279876,
			"target":34962
		},
		{
			"buffer":0,
			"byteLength":2904,
			"byteOffset":284232,
			"target":34962
		}
	],
	"buffers":[
		{
			"byteLength":287136,
			"uri":"Kaelen_FF7_HighDetail.bin"
		}
	]
}
